<?xml version="1.0" standalone="no"?><!DOCTYPE svg PUBLIC "-//W3C//DTD SVG 1.1//EN" "http://www.w3.org/Graphics/SVG/1.1/DTD/svg11.dtd"><svg height="1024" node-id="1" sillyvg="true" template-height="1024" template-width="1024" version="1.1" viewBox="0 0 1024 1024" width="1024" xmlns="http://www.w3.org/2000/svg" xmlns:xlink="http://www.w3.org/1999/xlink"><defs node-id="26"></defs><path d="M 0.00 0.00 L 1024.00 0.00 L 1024.00 1024.00 L 0.00 1024.00 Z" fill="#ffffff" fill-opacity="0" fill-rule="nonzero" node-id="28" stroke="none" target-height="1024" target-width="1024" target-x="0" target-y="0"></path><path d="M 697.59 612.80 C 713.00 585.18 756.66 585.64 772.53 612.65 C 782.73 627.90 774.01 645.96 770.67 661.83 C 763.20 639.34 763.04 601.91 730.82 602.38 C 703.19 605.02 707.08 641.44 700.31 661.29 C 693.93 646.19 686.07 627.59 697.59 612.80 Z" fill="#d5e7ea" fill-rule="nonzero" node-id="30" stroke="none" target-height="76.65796" target-width="96.659" target-x="686.071" target-y="585.176"></path><path d="M 503.57 146.01 C 508.48 145.78 518.44 145.23 523.42 145.00 C 528.16 178.78 525.21 213.02 526.14 246.95 C 589.26 249.44 659.84 235.90 715.25 274.27 C 765.76 307.96 779.69 370.93 798.68 424.62 C 823.12 410.23 852.38 414.27 879.54 414.74 C 923.83 413.42 921.72 493.89 879.78 495.60 C 860.55 497.47 841.25 496.53 822.11 496.38 C 859.31 594.44 853.71 700.28 852.23 803.09 C 851.22 841.84 816.74 875.54 778.61 878.50 C 753.86 880.05 726.54 881.61 705.06 867.21 C 688.72 857.87 680.70 840.13 668.87 826.43 C 563.26 825.03 457.58 826.67 351.97 826.04 C 338.97 848.46 321.70 871.49 294.92 877.10 C 259.20 882.47 216.01 882.23 191.42 851.34 C 160.05 816.71 174.61 766.82 171.34 724.79 C 167.37 647.44 175.38 569.46 202.16 496.38 C 174.76 493.11 137.25 507.04 118.34 480.66 C 108.53 459.96 107.60 425.01 133.83 416.38 C 163.87 414.04 197.57 408.67 224.57 425.79 C 242.70 370.38 258.50 306.25 310.72 272.63 C 367.69 235.90 438.51 249.28 502.48 246.95 C 502.87 213.33 500.46 179.55 503.57 146.01 Z M 306.21 308.28 C 275.16 339.17 265.04 383.30 250.64 423.22 C 239.98 456.45 225.82 488.99 220.84 523.77 L 218.97 521.83 C 200.13 578.41 192.82 638.17 194.14 697.63 C 195.15 717.71 192.82 738.57 198.73 758.02 C 216.94 792.19 258.97 801.14 294.61 801.14 C 434.70 801.53 574.86 800.67 714.94 801.53 C 750.04 801.68 791.29 799.04 815.49 769.78 C 831.60 751.33 827.63 725.18 829.19 702.61 C 830.20 641.37 824.99 579.42 803.74 521.52 C 802.26 517.08 799.23 508.21 797.67 503.69 C 783.90 457.00 767.79 411.00 752.46 364.78 C 738.14 325.24 708.87 289.99 667.16 278.39 L 653.70 280.03 L 663.11 277.30 C 608.64 267.19 552.99 273.64 497.97 271.85 C 453.92 273.02 409.33 267.57 365.98 277.30 C 343.10 278.86 322.24 292.56 306.21 308.28 Z M 137.49 437.70 C 137.17 448.44 136.86 459.18 136.71 470.00 C 161.30 470.77 185.97 470.31 210.64 468.44 C 209.08 459.10 207.29 449.92 205.27 440.81 C 183.17 434.82 159.98 437.85 137.49 437.70 Z M 817.60 438.17 C 816.04 448.83 814.64 459.57 813.32 470.31 C 837.52 471.01 861.80 470.77 886.08 469.45 C 885.77 458.87 885.61 448.28 885.54 437.70 C 862.89 437.62 840.16 437.70 817.60 438.17 Z M 192.82 796.24 C 196.94 813.05 199.67 832.58 215.23 843.24 C 238.66 860.29 269.55 856.78 296.64 852.89 C 308.39 847.60 315.47 836.32 323.64 826.90 C 300.68 825.34 277.73 824.88 254.84 825.03 L 254.30 823.01 C 232.82 816.39 212.27 807.21 192.82 796.24 Z M 697.43 828.07 C 718.91 861.53 766.15 863.01 799.00 846.90 C 818.68 837.02 825.92 815.38 832.62 795.93 C 791.99 821.53 744.60 828.30 697.43 828.07 Z" fill="#414448" fill-rule="nonzero" node-id="32" stroke="none" target-height="737.467" target-width="816.226" target-x="107.6" target-y="145"></path><path d="M 315.31 369.52 C 326.21 335.98 362.71 317.54 396.56 319.40 C 474.31 318.94 552.13 319.02 629.88 319.72 C 664.05 318.39 697.43 340.81 708.02 373.49 C 722.41 413.65 734.87 454.59 748.64 495.06 C 590.66 493.65 432.60 495.29 274.53 494.43 C 288.54 452.95 301.07 410.93 315.31 369.52 Z" fill="#d5e8ea" fill-rule="nonzero" node-id="34" stroke="none" target-height="177.75201" target-width="474.10803" target-x="274.534" target-y="317.537"></path><path d="M 306.21 308.28 C 322.24 292.56 343.10 278.86 365.98 277.30 C 419.44 289.05 474.31 283.37 528.55 283.92 C 570.27 283.22 612.29 287.19 653.70 280.03 L 667.16 278.39 C 625.84 296.60 580.00 286.95 536.41 288.82 C 483.10 290.84 428.94 284.15 376.49 296.06 C 335.86 301.58 300.92 331.00 289.48 370.54 C 274.30 418.87 253.60 466.03 247.22 516.69 C 240.99 521.75 234.84 526.89 228.85 532.02 C 226.83 530.00 222.86 525.87 220.84 523.77 C 225.82 488.99 239.98 456.45 250.64 423.22 C 265.04 383.30 275.16 339.17 306.21 308.28 Z" fill="#fed151" fill-rule="nonzero" node-id="36" stroke="none" target-height="254.71997" target-width="446.32495" target-x="220.835" target-y="277.302"></path><path d="M 365.98 277.30 C 409.32 267.57 453.92 273.02 497.97 271.85 C 552.99 273.64 608.63 267.19 663.11 277.30 L 653.70 280.03 C 612.29 287.19 570.27 283.22 528.55 283.92 C 474.31 283.37 419.44 289.05 365.98 277.30 Z" fill="#f8e184" fill-rule="nonzero" node-id="38" stroke="none" target-height="21.868988" target-width="297.135" target-x="365.977" target-y="267.185"></path><path d="M 667.16 278.39 C 708.87 289.99 738.14 325.24 752.46 364.78 C 747.86 367.42 738.52 372.64 733.93 375.20 C 720.86 333.65 684.20 296.99 638.68 296.99 C 551.28 295.44 463.80 297.61 376.49 296.06 C 428.94 284.15 483.11 290.84 536.41 288.82 C 580.00 286.95 625.84 296.60 667.16 278.39 Z" fill="#e9d57a" fill-rule="nonzero" node-id="40" stroke="none" target-height="96.813995" target-width="375.971" target-x="376.485" target-y="278.391"></path><path d="M 289.48 370.54 C 300.92 331.00 335.86 301.58 376.49 296.06 C 463.80 297.61 551.28 295.44 638.68 296.99 C 684.20 296.99 720.86 333.65 733.93 375.20 C 748.25 417.46 762.81 459.64 776.04 502.29 C 771.76 523.85 746.54 517.24 730.66 518.95 C 569.49 517.16 408.24 521.52 247.22 516.69 C 253.60 466.03 274.30 418.87 289.48 370.54 Z M 315.31 369.52 C 301.07 410.93 288.54 452.95 274.53 494.43 C 432.60 495.29 590.66 493.65 748.64 495.06 C 734.87 454.59 722.41 413.65 708.02 373.49 C 697.43 340.81 664.05 318.39 629.88 319.72 C 552.13 319.02 474.31 318.94 396.56 319.40 C 362.71 317.54 326.21 335.98 315.31 369.52 Z" fill="#3c4347" fill-rule="nonzero" node-id="42" stroke="none" target-height="228.41602" target-width="528.818" target-x="247.218" target-y="295.435"></path><path d="M 733.93 375.20 C 738.52 372.64 747.86 367.42 752.46 364.78 C 767.79 411.00 783.90 457.00 797.67 503.69 C 792.22 503.38 781.40 502.68 776.03 502.29 C 762.80 459.64 748.25 417.46 733.93 375.20 Z" fill="#fed65c" fill-rule="nonzero" node-id="44" stroke="none" target-height="138.91699" target-width="63.739014" target-x="733.932" target-y="364.777"></path><path d="M 137.49 437.70 C 159.98 437.85 183.17 434.82 205.27 440.81 C 207.29 449.92 209.08 459.10 210.64 468.44 C 185.97 470.31 161.30 470.77 136.71 470.00 C 136.86 459.18 137.17 448.44 137.49 437.70 Z" fill="#8b8a88" fill-rule="nonzero" node-id="46" stroke="none" target-height="35.954987" target-width="73.933" target-x="136.707" target-y="434.819"></path><path d="M 817.59 438.17 C 840.16 437.70 862.89 437.62 885.53 437.70 C 885.61 448.28 885.77 458.87 886.08 469.45 C 861.80 470.77 837.52 471.01 813.31 470.31 C 814.64 459.57 816.04 448.83 817.59 438.17 Z" fill="#888889" fill-rule="nonzero" node-id="48" stroke="none" target-height="33.386993" target-width="72.76599" target-x="813.314" target-y="437.621"></path><path d="M 776.04 502.29 C 781.41 502.68 792.22 503.38 797.67 503.69 C 799.23 508.21 802.26 517.08 803.74 521.52 C 789.03 532.02 773.70 544.24 754.40 542.53 C 601.40 543.15 448.32 540.66 295.24 543.31 C 272.67 543.54 248.77 544.24 228.85 532.02 C 234.84 526.89 240.99 521.75 247.22 516.69 C 408.24 521.52 569.49 517.16 730.66 518.95 C 746.54 517.24 771.76 523.85 776.04 502.29 Z" fill="#fee081" fill-rule="nonzero" node-id="50" stroke="none" target-height="41.94803" target-width="574.891" target-x="228.851" target-y="502.293"></path><path d="M 218.97 521.83 L 220.84 523.77 C 222.86 525.87 226.83 530.00 228.85 532.02 C 248.77 544.24 272.67 543.54 295.24 543.31 C 448.32 540.66 601.40 543.15 754.40 542.53 C 773.70 544.24 789.03 532.02 803.74 521.52 C 824.99 579.42 830.20 641.37 829.19 702.61 C 807.71 700.05 786.31 697.17 764.75 696.62 C 780.86 680.98 799.46 663.24 799.46 638.95 C 802.73 606.89 778.84 574.28 746.70 569.22 C 709.58 562.14 669.26 592.10 669.42 630.78 C 667.08 654.44 682.73 673.97 697.12 690.86 C 675.80 695.76 648.33 705.65 638.29 679.03 C 628.87 665.65 618.52 648.37 599.61 650.39 C 539.92 649.85 480.07 648.99 420.45 650.94 C 394.07 651.33 387.85 680.67 384.42 701.29 C 361.31 699.42 338.27 697.55 315.16 697.48 C 332.44 681.84 351.50 663.55 352.20 638.49 C 355.71 599.34 318.35 562.22 278.89 569.38 C 233.52 570.93 205.97 628.84 228.31 666.58 C 235.54 678.10 245.43 687.44 254.92 697.17 C 234.61 696.93 214.38 697.40 194.14 697.63 C 192.82 638.17 200.13 578.41 218.97 521.83 Z" fill="#fba14a" fill-rule="nonzero" node-id="52" stroke="none" target-height="184.133" target-width="637.38403" target-x="192.819" target-y="521.516"></path><path d="M 228.31 666.58 C 205.97 628.84 233.52 570.93 278.89 569.38 C 318.35 562.22 355.71 599.34 352.20 638.49 C 351.50 663.55 332.44 681.84 315.16 697.48 C 295.00 698.02 274.92 697.94 254.92 697.17 C 245.43 687.44 235.54 678.10 228.31 666.58 Z M 267.37 596.54 C 239.20 607.51 234.46 649.62 259.28 666.74 C 283.56 688.22 328.00 671.25 329.25 638.10 C 334.69 605.64 295.16 580.20 267.37 596.54 Z" fill="#3f444f" fill-rule="nonzero" node-id="54" stroke="none" target-height="135.80396" target-width="149.735" target-x="205.971" target-y="562.218"></path><path d="M 669.42 630.78 C 669.26 592.10 709.58 562.14 746.70 569.22 C 778.84 574.28 802.73 606.89 799.46 638.95 C 799.46 663.24 780.86 680.98 764.75 696.62 C 742.03 699.11 718.84 698.72 697.12 690.86 C 682.73 673.97 667.08 654.44 669.42 630.78 Z M 697.59 612.80 C 686.07 627.59 693.93 646.19 700.31 661.29 L 699.85 663.62 C 722.03 677.87 749.73 679.19 770.67 661.83 C 774.01 645.96 782.73 627.90 772.53 612.65 C 756.66 585.64 713.00 585.18 697.59 612.80 Z" fill="#3b4048" fill-rule="nonzero" node-id="56" stroke="none" target-height="136.97198" target-width="135.64801" target-x="667.082" target-y="562.14"></path><path d="M 267.38 596.54 C 295.16 580.20 334.69 605.64 329.25 638.10 C 328.00 671.25 283.56 688.22 259.28 666.74 C 234.46 649.62 239.20 607.51 267.38 596.54 Z" fill="#9ecfe0" fill-rule="nonzero" node-id="58" stroke="none" target-height="108.02002" target-width="100.23801" target-x="234.456" target-y="580.196"></path><path d="M 700.31 661.29 C 707.08 641.44 703.19 605.02 730.82 602.38 C 763.04 601.91 763.20 639.34 770.67 661.83 C 749.73 679.19 722.03 677.87 699.85 663.62 L 700.31 661.29 Z" fill="#9ecee3" fill-rule="nonzero" node-id="60" stroke="none" target-height="77.28003" target-width="70.82001" target-x="699.846" target-y="601.909"></path><path d="M 384.42 701.29 C 387.85 680.67 394.07 651.33 420.45 650.94 C 480.07 648.99 539.92 649.85 599.61 650.39 C 618.52 648.37 628.87 665.65 638.29 679.03 C 638.75 699.11 638.75 725.57 616.65 734.68 C 590.58 741.60 563.03 737.79 536.41 738.57 C 495.79 737.09 454.93 741.91 414.62 736.23 C 397.42 733.28 391.58 714.52 384.42 701.29 Z M 414.70 679.81 C 407.23 691.95 410.42 714.83 428.16 714.13 C 484.89 715.07 541.78 714.83 598.52 713.90 C 621.40 716.86 620.31 672.50 598.52 674.67 C 549.33 673.35 500.07 675.45 450.81 674.60 C 438.90 676.08 424.50 671.56 414.70 679.81 Z" fill="#3f4249" fill-rule="nonzero" node-id="62" stroke="none" target-height="93.54498" target-width="254.33203" target-x="384.422" target-y="648.37"></path><path d="M 414.69 679.81 C 424.50 671.56 438.90 676.08 450.81 674.60 C 500.07 675.45 549.33 673.35 598.52 674.67 C 620.31 672.50 621.40 716.86 598.52 713.90 C 541.78 714.83 484.89 715.07 428.16 714.13 C 410.42 714.83 407.22 691.95 414.69 679.81 Z" fill="#ffffff" fill-rule="nonzero" node-id="64" stroke="none" target-height="45.294006" target-width="214.17297" target-x="407.224" target-y="671.562"></path><path d="M 638.29 679.03 C 648.33 705.65 675.80 695.76 697.12 690.86 C 718.84 698.72 742.03 699.11 764.75 696.62 C 786.31 697.17 807.71 700.05 829.19 702.61 C 827.63 725.18 831.60 751.33 815.49 769.78 C 791.29 799.04 750.04 801.68 714.94 801.53 C 574.86 800.67 434.70 801.53 294.61 801.14 C 258.97 801.14 216.94 792.19 198.73 758.02 C 192.82 738.57 195.15 717.71 194.14 697.63 C 214.38 697.40 234.61 696.93 254.92 697.17 C 274.92 697.94 295.00 698.02 315.16 697.48 C 338.27 697.55 361.31 699.42 384.42 701.29 C 391.58 714.52 397.42 733.28 414.62 736.23 C 454.93 741.91 495.79 737.09 536.41 738.57 C 563.03 737.79 590.58 741.60 616.65 734.68 C 638.75 725.57 638.75 699.11 638.29 679.03 Z" fill="#ff6a64" fill-rule="nonzero" node-id="66" stroke="none" target-height="122.65198" target-width="638.785" target-x="192.817" target-y="679.033"></path><path d="M 192.82 796.24 C 212.27 807.21 232.82 816.39 254.30 823.01 L 254.84 825.03 C 256.25 830.79 259.12 842.47 260.53 848.22 C 272.51 849.86 284.42 851.49 296.64 852.89 C 269.55 856.78 238.66 860.29 215.23 843.24 C 199.67 832.58 196.94 813.05 192.82 796.24 Z" fill="#706f70" fill-rule="nonzero" node-id="68" stroke="none" target-height="64.04999" target-width="103.81799" target-x="192.818" target-y="796.237"></path><path d="M 697.43 828.07 C 744.60 828.30 791.99 821.53 832.62 795.93 C 825.92 815.38 818.68 837.02 799.00 846.90 C 766.15 863.01 718.91 861.53 697.43 828.07 Z" fill="#817e7d" fill-rule="nonzero" node-id="70" stroke="none" target-height="67.08496" target-width="135.18097" target-x="697.434" target-y="795.926"></path><path d="M 254.84 825.03 C 277.73 824.88 300.68 825.34 323.64 826.90 C 315.47 836.32 308.39 847.60 296.64 852.89 C 284.42 851.49 272.51 849.86 260.53 848.22 C 259.12 842.47 256.25 830.79 254.84 825.03 Z" fill="#818383" fill-rule="nonzero" node-id="72" stroke="none" target-height="28.015991" target-width="68.79599" target-x="254.845" target-y="824.877"></path></svg>