<svg xmlns="http://www.w3.org/2000/svg" xmlns:xlink="http://www.w3.org/1999/xlink" width="200" height="200" viewBox="0 0 200 200" fill="none"><rect x="0" y="0" width="0" height="0" fill="rgba(249, 249, 249, 1)" /><g opacity="1"  transform="translate(0 0)  rotate(0)"><rect fill="#FFFFFF" opacity="0" transform="translate(0 0)  rotate(NaN)" x="0" y="0" width="200" height="200" /><g opacity="1"  transform="translate(0 0)  rotate(0)"><rect fill="#2B81E3" opacity="1" transform="translate(0 0)  rotate(0)" x="0" y="0" width="200" height="200" rx="30" /><mask id="bg-mask-0" fill="white"><use transform="translate(0 0)  rotate(0)" xlink:href="#path_0"></use></mask><g mask="url(#bg-mask-0)" ><g opacity="1"  transform="translate(26 20)  rotate(0)"><g opacity="1"  transform="translate(0 0)  rotate(0)"><path id="圆形 1" fill-rule="evenodd" style="fill:#FFFFFF" opacity="1" d="M80 0C35.82 0 0 35.82 0 80C0 124.18 35.82 160 80 160C124.18 160 160 124.18 160 80C160 35.82 124.18 0 80 0Z"></path><path id="矩形 1" fill-rule="evenodd" style="fill:#2B81E3" opacity="1" d="M131 160L152 160C157.52 160 162 155.52 162 150L162 10C162 4.48 157.52 0 152 0L131 0C125.48 0 121 4.48 121 10L121 150C121 155.52 125.48 160 131 160Z"></path><path id="圆形 2" fill-rule="evenodd" style="fill:#2B81E3" opacity="1" d="M84.87 26C53.46 26 28 50.26 28 80.19C28 110.13 53.46 134.39 84.87 134.39C116.27 134.39 141.73 110.13 141.73 80.19C141.73 50.26 116.27 26 84.87 26Z"></path></g><g opacity="1"  transform="translate(45 42)  rotate(0)"><path id="1" fill-rule="evenodd" style="fill:#FFFFFF" opacity="1" d="M7.25 63.12L55.63 63.12C57.07 63.12 58.04 61.65 57.47 60.33L33.28 4.26C32.58 2.65 30.31 2.65 29.61 4.26L5.42 60.33C4.85 61.65 5.82 63.11 7.25 63.12Z"></path><path id="2" fill-rule="evenodd" style="fill:#FFFFFF" opacity="1" d="M50.0669 63.12L98.4469 63.12C99.8869 63.12 100.857 61.65 100.287 60.33L76.0969 4.26C75.3969 2.65 73.1269 2.65 72.4269 4.26L48.2369 60.33C47.6669 61.65 48.6369 63.11 50.0669 63.12Z"></path><path id="3" fill-rule="evenodd" style="fill:#2B81E3" opacity="1" d="M57.6911 68.5433L89.4911 68.5433C90.2011 68.5433 90.6911 67.8233 90.4211 67.1633L74.5211 27.8033C74.1911 26.9633 72.9911 26.9633 72.6611 27.8033L56.7611 67.1633C56.4911 67.8233 56.9811 68.5433 57.6911 68.5433Z"></path><path id="4" fill-rule="evenodd" style="fill:#2B81E3" opacity="1" d="M15.0943 68.5433L49.1343 68.5433C49.8543 68.5433 50.3442 67.8033 50.0542 67.1433L33.0343 27.6333C32.6842 26.8233 31.5443 26.8233 31.1943 27.6333L14.1743 67.1433C13.8843 67.8033 14.3743 68.5433 15.0943 68.5433Z"></path></g></g></g></g></g><defs><rect id="path_0" x="0" y="0" width="200" height="200" /></defs></svg>