<?xml version="1.0" standalone="no"?><!DOCTYPE svg PUBLIC "-//W3C//DTD SVG 1.1//EN" "http://www.w3.org/Graphics/SVG/1.1/DTD/svg11.dtd"><svg height="1024" node-id="1" sillyvg="true" template-height="1024" template-width="1024" version="1.1" viewBox="0 0 1024 1024" width="1024" xmlns="http://www.w3.org/2000/svg" xmlns:xlink="http://www.w3.org/1999/xlink"><defs node-id="18"></defs><path d="M 0.00 0.00 L 1024.00 0.00 L 1024.00 1024.00 L 0.00 1024.00 Z" fill="#ffffff" fill-opacity="0" fill-rule="nonzero" node-id="20" stroke="none" target-height="1024" target-width="1024" target-x="0" target-y="0"></path><path d="M 263.37 260.82 C 272.24 241.02 294.19 231.82 314.99 232.57 C 444.65 231.74 574.48 232.90 704.23 232.07 C 726.60 231.24 752.61 237.54 763.05 259.58 C 783.43 299.93 800.83 341.77 820.97 382.36 C 848.31 383.36 882.69 371.43 904.89 391.64 C 914.26 410.53 916.91 441.52 896.86 454.53 C 885.01 458.09 872.50 458.67 860.40 460.33 C 891.56 527.85 873.58 603.99 878.38 675.58 C 882.36 700.43 863.80 718.08 843.00 727.03 C 840.68 748.65 847.48 783.12 819.64 789.91 C 786.50 793.06 752.94 792.89 719.89 790.58 C 689.31 785.11 695.11 747.74 693.71 724.96 C 571.50 725.45 449.38 722.97 327.25 725.21 C 326.42 747.33 331.89 780.05 305.30 789.33 C 270.00 793.56 233.30 793.89 198.09 789.08 C 173.81 779.47 180.27 748.49 178.86 727.86 C 158.23 717.91 137.44 701.59 141.33 675.91 C 146.05 604.08 127.25 526.86 160.47 459.67 C 145.39 455.94 123.85 459.42 115.73 442.60 C 109.93 422.88 108.03 391.31 131.89 382.86 C 155.33 378.39 179.36 380.79 203.06 381.95 C 222.53 341.27 243.16 301.09 263.37 260.82 Z M 282.26 277.47 C 250.45 344.67 215.98 410.62 180.94 476.24 C 160.97 512.61 166.77 555.44 166.69 595.29 C 227.58 586.18 289.06 592.23 350.20 587.92 C 293.12 584.11 235.87 587.09 178.70 587.50 C 174.64 565.96 168.34 542.52 178.03 521.55 C 184.58 507.80 202.31 508.96 215.07 507.97 C 416.57 508.30 618.14 506.97 819.64 508.55 C 856.84 513.35 847.15 561.99 839.86 587.50 C 781.78 587.59 723.53 583.86 665.62 588.33 C 664.38 581.04 661.97 566.38 660.73 559.09 C 660.65 553.29 660.57 541.69 660.48 535.89 C 559.65 538.46 458.74 537.13 357.82 536.88 C 358.24 542.02 359.07 552.29 359.48 557.43 L 363.62 557.43 C 361.06 570.27 358.49 583.20 356.00 596.12 C 399.66 587.34 444.32 589.33 488.56 587.42 C 545.40 585.02 602.15 596.62 658.91 588.91 C 723.20 590.24 787.58 587.26 851.54 594.96 C 850.88 562.32 856.18 528.76 847.73 496.78 C 832.48 456.19 809.20 419.23 791.47 379.71 C 773.41 344.75 760.07 307.47 741.51 272.75 C 733.47 254.19 711.77 255.85 695.11 255.68 C 570.75 256.35 446.39 255.60 322.12 256.01 C 305.54 254.52 288.48 260.99 282.26 277.47 Z M 142.57 405.23 C 137.11 413.35 137.85 423.87 135.62 433.07 C 148.04 433.90 160.55 435.06 173.15 434.31 C 181.02 426.19 184.50 415.01 189.63 405.15 C 173.98 404.73 158.23 403.90 142.57 405.23 Z M 835.47 404.98 C 838.70 415.09 841.93 425.20 845.24 435.39 C 858.75 434.81 872.33 434.23 885.92 433.65 C 885.51 424.12 885.18 414.68 884.76 405.23 C 868.36 405.15 851.87 405.06 835.47 404.98 Z M 196.84 533.40 C 197.59 543.84 198.33 554.28 199.08 564.72 C 241.67 564.89 284.17 564.72 326.75 564.22 C 326.92 554.20 327.09 544.17 327.25 534.23 C 283.84 531.25 240.34 532.08 196.84 533.40 Z M 692.30 532.82 C 692.30 540.28 692.21 555.19 692.21 562.57 C 735.96 565.38 779.87 565.96 823.62 562.48 C 822.79 555.28 820.97 540.69 820.05 533.49 C 777.47 531.91 734.88 532.08 692.30 532.82 Z M 166.60 617.66 C 166.60 630.92 166.60 644.26 166.60 657.51 C 395.44 656.36 624.27 657.18 853.11 657.35 C 853.36 644.42 853.61 631.50 853.86 618.66 C 624.77 618.08 395.69 618.58 166.60 617.66 Z M 162.96 689.83 C 174.06 695.13 185.82 698.77 198.33 697.95 C 405.46 697.70 612.59 697.28 819.72 698.11 C 832.48 698.53 846.15 697.53 856.26 688.58 C 625.19 688.00 393.95 686.10 162.96 689.83 Z M 199.49 727.11 C 201.15 740.78 202.89 754.45 204.63 768.12 C 237.52 769.61 270.58 769.12 303.39 766.05 C 303.56 752.79 303.72 739.62 303.89 726.45 C 269.09 725.45 234.21 725.70 199.49 727.11 Z M 717.90 725.70 C 718.06 739.54 718.31 753.46 718.56 767.29 C 751.78 770.03 785.09 769.78 818.31 766.55 C 818.31 753.13 818.40 739.70 818.48 726.37 C 785.01 725.54 751.45 725.37 717.90 725.70 Z" fill="#242f38" fill-rule="nonzero" node-id="22" stroke="none" target-height="562.647" target-width="808.882" target-x="108.026" target-y="231.242"></path><path d="M 282.26 277.47 C 288.48 260.99 305.54 254.52 322.11 256.01 C 446.39 255.60 570.75 256.35 695.11 255.68 C 711.77 255.85 733.47 254.19 741.51 272.75 C 760.07 307.47 773.41 344.75 791.47 379.71 C 809.20 419.23 832.48 456.19 847.73 496.78 C 856.18 528.76 850.87 562.32 851.54 594.96 C 787.58 587.26 723.20 590.24 658.91 588.91 L 665.62 588.33 C 723.53 583.86 781.77 587.59 839.86 587.50 C 847.15 561.99 856.84 513.35 819.64 508.55 C 618.14 506.97 416.56 508.30 215.07 507.97 C 202.31 508.96 184.58 507.80 178.03 521.55 C 168.34 542.52 174.64 565.96 178.70 587.50 C 235.87 587.09 293.12 584.11 350.20 587.92 C 289.06 592.23 227.58 586.18 166.68 595.29 C 166.77 555.44 160.97 512.61 180.93 476.24 C 215.98 410.62 250.45 344.67 282.26 277.47 Z M 301.57 274.32 C 287.23 281.70 282.92 299.60 275.22 312.69 C 260.47 346.82 238.76 377.48 224.76 411.78 C 219.13 423.13 226.92 434.31 239.34 433.15 C 399.66 433.65 559.98 432.99 720.22 433.24 C 743.83 433.07 767.61 434.89 790.97 431.25 C 803.65 415.67 789.48 396.86 783.10 381.87 C 763.30 347.32 750.21 309.37 729.50 275.49 C 707.62 269.52 684.42 272.50 662.05 272.00 C 541.92 273.99 421.37 268.69 301.57 274.32 Z" fill="#fda95a" fill-rule="nonzero" node-id="24" stroke="none" target-height="341.101" target-width="695.873" target-x="160.966" target-y="254.192"></path><path d="M 162.96 689.83 C 393.95 686.10 625.19 688.00 856.26 688.59 C 846.15 697.53 832.48 698.53 819.72 698.11 C 612.59 697.28 405.46 697.70 198.33 697.95 C 185.82 698.78 174.06 695.13 162.96 689.83 Z" fill="#fda95a" fill-rule="nonzero" node-id="26" stroke="none" target-height="12.677002" target-width="693.30396" target-x="162.955" target-y="686.099"></path><path d="M 301.57 274.32 C 421.37 268.69 541.92 273.99 662.06 272.00 C 684.43 272.50 707.62 269.52 729.50 275.49 C 750.21 309.37 763.30 347.32 783.10 381.87 C 789.48 396.86 803.65 415.67 790.97 431.25 C 767.61 434.89 743.83 433.07 720.22 433.24 C 559.98 432.99 399.67 433.65 239.35 433.15 C 226.92 434.31 219.13 423.13 224.76 411.78 C 238.77 377.48 260.47 346.82 275.22 312.69 C 282.93 299.60 287.24 281.70 301.57 274.32 Z M 311.35 296.61 C 292.95 334.64 272.99 371.92 253.76 409.62 C 425.60 408.71 597.52 409.04 769.35 409.12 C 748.64 372.84 731.90 334.56 715.16 296.36 C 580.61 295.12 445.98 295.37 311.35 296.61 Z" fill="#283039" fill-rule="nonzero" node-id="28" stroke="none" target-height="166.20099" target-width="584.52" target-x="219.131" target-y="268.691"></path><path d="M 311.34 296.61 C 445.98 295.37 580.61 295.12 715.16 296.36 C 731.90 334.56 748.63 372.84 769.35 409.12 C 597.51 409.04 425.60 408.71 253.76 409.62 C 272.98 371.93 292.95 334.64 311.34 296.61 Z" fill="#d6ede9" fill-rule="nonzero" node-id="30" stroke="none" target-height="114.50101" target-width="515.587" target-x="253.76" target-y="295.121"></path><path d="M 142.57 405.23 C 158.23 403.90 173.97 404.73 189.63 405.15 C 184.50 415.01 181.02 426.19 173.15 434.31 C 160.55 435.06 148.04 433.90 135.62 433.07 C 137.85 423.87 137.11 413.35 142.57 405.23 Z" fill="#fead4e" fill-rule="nonzero" node-id="32" stroke="none" target-height="31.153015" target-width="54.018997" target-x="135.615" target-y="403.905"></path><path d="M 835.47 404.98 C 851.87 405.06 868.36 405.15 884.76 405.23 C 885.18 414.68 885.51 424.12 885.92 433.65 C 872.34 434.23 858.75 434.81 845.24 435.39 C 841.93 425.20 838.70 415.09 835.47 404.98 Z" fill="#ffb15d" fill-rule="nonzero" node-id="34" stroke="none" target-height="30.407013" target-width="50.45697" target-x="835.466" target-y="404.982"></path><path d="M 196.84 533.40 C 240.34 532.08 283.84 531.25 327.25 534.23 C 327.09 544.17 326.92 554.20 326.75 564.22 C 284.17 564.72 241.67 564.89 199.08 564.72 C 198.34 554.28 197.59 543.84 196.84 533.40 Z" fill="#bab5b1" fill-rule="nonzero" node-id="36" stroke="none" target-height="33.638" target-width="130.40901" target-x="196.843" target-y="531.249"></path><path d="M 357.82 536.88 C 458.74 537.13 559.65 538.46 660.48 535.89 C 660.57 541.69 660.65 553.29 660.73 559.09 C 561.72 557.68 462.63 554.95 363.62 557.43 L 359.48 557.43 C 359.07 552.29 358.24 542.02 357.82 536.88 Z" fill="#616470" fill-rule="nonzero" node-id="38" stroke="none" target-height="23.197998" target-width="302.906" target-x="357.825" target-y="535.889"></path><path d="M 692.30 532.82 C 734.88 532.08 777.47 531.91 820.05 533.49 C 820.97 540.69 822.79 555.28 823.62 562.48 C 779.87 565.96 735.96 565.38 692.21 562.57 C 692.21 555.19 692.30 540.28 692.30 532.82 Z" fill="#b6b1ad" fill-rule="nonzero" node-id="40" stroke="none" target-height="34.052002" target-width="131.40302" target-x="692.213" target-y="531.912"></path><path d="M 363.62 557.43 C 462.63 554.94 561.72 557.68 660.73 559.09 C 661.97 566.38 664.38 581.04 665.62 588.33 L 658.91 588.91 C 602.15 596.62 545.40 585.02 488.56 587.42 C 444.32 589.33 399.66 587.34 356.00 596.12 C 358.49 583.20 361.06 570.27 363.62 557.43 Z" fill="#39414b" fill-rule="nonzero" node-id="42" stroke="none" target-height="41.67505" target-width="309.618" target-x="356.001" target-y="554.944"></path><path d="M 166.60 617.66 C 395.69 618.57 624.77 618.08 853.86 618.66 C 853.61 631.50 853.36 644.42 853.11 657.35 C 624.28 657.18 395.44 656.36 166.60 657.51 C 166.60 644.26 166.60 630.92 166.60 617.66 Z" fill="#b5b2ae" fill-rule="nonzero" node-id="44" stroke="none" target-height="39.85199" target-width="687.256" target-x="166.602" target-y="617.663"></path><path d="M 199.50 727.11 C 234.21 725.70 269.09 725.45 303.89 726.45 C 303.72 739.62 303.56 752.79 303.39 766.05 C 270.58 769.12 237.52 769.61 204.63 768.12 C 202.89 754.45 201.15 740.78 199.50 727.11 Z" fill="#455055" fill-rule="nonzero" node-id="46" stroke="none" target-height="44.159973" target-width="104.393005" target-x="199.495" target-y="725.453"></path><path d="M 717.90 725.70 C 751.45 725.37 785.01 725.54 818.48 726.37 C 818.40 739.70 818.31 753.13 818.31 766.55 C 785.09 769.78 751.78 770.03 718.56 767.29 C 718.31 753.46 718.06 739.54 717.90 725.70 Z" fill="#475155" fill-rule="nonzero" node-id="48" stroke="none" target-height="44.657043" target-width="100.58301" target-x="717.896" target-y="725.371"></path></svg>