<?xml version="1.0" standalone="no"?><!DOCTYPE svg PUBLIC "-//W3C//DTD SVG 1.1//EN" "http://www.w3.org/Graphics/SVG/1.1/DTD/svg11.dtd"><svg height="1024" node-id="1" sillyvg="true" template-height="1024" template-width="1024" version="1.1" viewBox="0 0 1024 1024" width="1024" xmlns="http://www.w3.org/2000/svg" xmlns:xlink="http://www.w3.org/1999/xlink"><defs node-id="31"></defs><path d="M 0.00 0.00 L 1024.00 0.00 L 1024.00 1024.00 L 0.00 1024.00 Z" fill="#ffffff" fill-opacity="0" fill-rule="nonzero" node-id="33" stroke="none" target-height="1024" target-width="1024" target-x="0" target-y="0"></path><path d="M 643.52 437.32 C 649.48 437.96 654.29 446.36 651.15 451.81 C 644.74 456.04 638.20 456.30 631.53 452.58 C 627.29 445.40 637.23 438.34 643.52 437.32 Z" fill="#fdfdfe" fill-rule="nonzero" node-id="35" stroke="none" target-height="18.980011" target-width="26.994995" target-x="627.294" target-y="437.318"></path><path d="M 279.19 603.65 C 304.77 589.67 335.80 618.52 325.93 645.20 C 321.38 671.36 285.53 679.69 268.35 660.52 C 249.82 644.75 257.70 612.56 279.19 603.65 Z M 278.54 614.03 C 265.91 622.75 262.51 643.21 274.25 654.17 C 287.78 670.59 318.56 660.59 318.17 638.66 C 321.38 618.14 295.60 601.53 278.54 614.03 Z" fill="#fdfdfe" fill-rule="nonzero" node-id="37" stroke="none" target-height="90.02496" target-width="85.985016" target-x="249.818" target-y="589.668"></path><path d="M 734.63 603.33 C 764.32 589.67 794.20 630.71 775.09 655.58 C 762.59 676.23 728.92 676.04 716.74 655.39 C 704.88 637.12 714.37 610.70 734.63 603.33 Z M 733.41 613.52 C 718.73 622.11 715.33 643.98 728.09 655.90 C 742.00 670.52 771.37 659.94 771.69 639.36 C 774.51 620.00 750.53 602.30 733.41 613.52 Z" fill="#fdfdfe" fill-rule="nonzero" node-id="39" stroke="none" target-height="86.56195" target-width="89.31897" target-x="704.88" target-y="589.668"></path><path d="M 172.75 342.55 C 197.43 303.69 248.09 299.33 289.83 301.13 C 379.66 300.94 469.49 301.32 559.26 300.87 C 605.94 295.55 659.10 314.46 676.35 361.66 C 690.32 393.01 703.73 424.62 716.93 456.36 C 760.22 461.11 804.14 466.69 845.30 481.75 C 868.77 490.15 888.39 510.67 892.69 535.74 C 894.67 551.45 892.49 567.29 891.40 583.13 C 907.69 591.21 918.46 611.08 907.63 628.08 C 891.08 651.35 858.89 641.35 834.72 643.72 C 828.89 692.39 781.18 731.89 731.81 721.82 C 691.99 716.43 665.00 681.23 657.56 643.66 C 565.42 642.57 473.21 643.34 381.07 643.34 C 374.73 682.71 344.07 718.23 303.04 721.88 C 255.21 728.68 211.41 689.70 205.13 643.27 C 177.68 640.39 146.14 650.65 121.90 634.23 C 103.18 619.03 113.50 592.04 132.22 582.17 C 129.53 547.41 131.84 512.60 133.18 477.91 C 132.54 468.80 139.79 462.45 144.34 455.66 C 154.22 418.15 154.54 377.37 172.75 342.55 Z M 186.21 362.81 C 175.38 395.70 170.95 430.39 166.01 464.70 L 174.80 466.11 C 199.55 492.91 183.84 531.58 180.31 563.32 C 170.50 568.89 158.83 572.29 151.72 581.59 C 174.67 586.01 198.14 584.54 221.41 584.22 C 232.51 571.65 244.11 558.44 260.40 552.61 C 297.85 535.93 343.11 551.58 365.88 584.73 C 469.30 584.35 572.73 585.12 676.15 584.35 C 696.16 552.41 738.73 538.24 773.94 551.32 C 792.72 557.48 805.68 573.06 821.58 583.96 C 837.35 585.63 853.32 584.35 869.22 584.15 C 870.31 577.81 871.53 571.59 872.75 565.37 C 857.36 562.16 839.34 562.29 828.44 549.34 C 815.23 537.79 816.96 519.14 814.52 503.56 L 823.25 497.91 C 744.25 472.46 660.12 475.86 578.24 475.02 C 475.65 473.68 373.12 474.19 270.59 473.35 C 240.07 472.78 208.78 476.88 179.29 466.88 C 186.53 433.79 188.78 398.72 204.42 368.13 C 217.69 345.05 246.23 339.09 270.91 339.21 C 367.03 338.44 463.15 339.73 559.33 338.77 C 583.12 338.96 611.20 338.89 628.70 357.75 C 643.71 376.08 651.34 398.98 661.28 420.20 C 668.59 434.82 673.20 454.12 691.86 458.09 C 681.80 426.10 667.82 395.58 654.03 365.18 C 640.76 336.65 609.02 320.56 578.24 322.42 C 473.73 322.80 369.15 322.42 264.63 322.54 C 234.49 322.03 198.46 332.10 186.21 362.81 Z M 329.90 360.57 C 329.20 391.41 329.26 422.31 329.39 453.28 C 333.43 453.09 341.57 452.71 345.68 452.51 C 346.00 421.74 346.70 390.96 346.25 360.18 C 342.15 360.31 334.01 360.44 329.90 360.57 Z M 225.26 375.83 C 211.22 398.78 209.42 426.67 203.52 452.45 C 238.41 452.26 273.29 452.64 308.17 452.58 C 308.23 422.06 308.62 391.67 308.87 361.27 C 281.30 362.88 246.55 353.26 225.26 375.83 Z M 367.35 453.22 C 404.22 452.51 441.09 452.90 477.96 452.64 C 478.54 422.19 479.05 391.73 479.18 361.27 C 442.37 360.89 405.63 361.72 368.89 360.76 C 367.10 391.54 367.16 422.38 367.35 453.22 Z M 500.79 362.81 C 498.54 392.50 498.48 422.38 499.95 452.13 C 503.86 452.90 511.62 454.38 515.47 455.08 C 516.17 423.34 516.56 391.60 516.69 359.86 C 512.71 360.63 504.76 362.11 500.79 362.81 Z M 537.72 361.27 C 537.40 391.99 537.14 422.76 537.21 453.61 C 558.94 453.86 580.68 453.99 602.48 453.93 C 610.11 438.73 621.33 425.90 636.21 417.51 C 627.55 399.04 622.29 375.38 602.35 365.82 C 581.64 358.45 559.13 361.79 537.72 361.27 Z M 643.52 437.32 C 637.23 438.34 627.29 445.40 631.52 452.58 C 638.19 456.30 644.73 456.04 651.15 451.81 C 654.29 446.36 649.48 437.96 643.52 437.32 Z M 153.57 478.68 C 152.61 504.64 151.33 530.74 152.87 556.84 C 169.80 542.35 165.24 517.34 167.68 497.59 C 170.50 487.72 158.83 484.32 153.57 478.68 Z M 838.18 503.04 C 837.22 508.43 835.36 519.26 834.40 524.65 C 844.47 537.35 858.32 545.42 875.18 543.31 C 868.38 525.36 856.14 510.35 838.18 503.04 Z M 266.30 571.26 C 232.96 587.17 213.98 630.83 231.99 664.75 C 247.13 699.70 294.19 714.45 326.44 694.12 C 364.47 674.37 370.17 617.43 341.25 587.49 C 323.81 565.17 291.37 562.22 266.30 571.26 Z M 722.06 571.91 C 680.19 588.26 664.93 647.70 696.09 680.98 C 727.26 718.04 795.42 705.34 809.52 658.34 C 829.85 607.75 772.91 550.36 722.06 571.91 Z M 827.92 606.72 C 829.40 610.57 832.41 618.26 833.89 622.05 C 854.02 622.62 874.28 622.56 894.29 619.87 C 892.30 616.53 888.39 609.93 886.40 606.66 C 866.97 604.29 847.35 606.40 827.92 606.72 Z M 131.65 606.15 C 133.12 609.54 136.01 616.28 137.48 619.68 C 160.31 624.23 184.03 622.43 207.12 620.32 C 207.82 616.92 209.23 610.12 209.94 606.72 C 183.84 605.12 157.74 605.89 131.65 606.15 Z M 374.08 606.72 C 376.01 627.11 397.55 620.77 411.91 622.11 C 494.50 620.51 577.22 623.52 659.67 621.02 C 661.21 617.43 664.23 610.31 665.77 606.72 C 568.56 605.57 471.29 605.95 374.08 606.72 Z" fill="#252527" fill-rule="nonzero" node-id="41" stroke="none" target-height="436.33698" target-width="815.287" target-x="103.176" target-y="295.549"></path><path d="M 742.13 628.20 C 752.58 625.19 755.86 628.85 752.07 639.30 C 741.49 642.12 738.16 638.46 742.13 628.20 Z" fill="#bebebd" fill-rule="nonzero" node-id="43" stroke="none" target-height="16.927979" target-width="17.697998" target-x="738.157" target-y="625.19"></path><path d="M 225.26 375.83 C 246.55 353.26 281.30 362.88 308.87 361.27 C 308.62 391.67 308.23 422.06 308.17 452.58 C 273.29 452.64 238.41 452.26 203.52 452.45 C 209.42 426.67 211.22 398.78 225.26 375.83 Z" fill="#fefefe" fill-rule="nonzero" node-id="45" stroke="none" target-height="99.38602" target-width="105.34898" target-x="203.524" target-y="353.257"></path><path d="M 367.35 453.22 C 367.16 422.38 367.10 391.54 368.89 360.76 C 405.63 361.72 442.37 360.89 479.18 361.27 C 479.05 391.73 478.54 422.19 477.96 452.64 C 441.09 452.90 404.22 452.52 367.35 453.22 Z" fill="#fefefe" fill-rule="nonzero" node-id="47" stroke="none" target-height="92.461" target-width="112.082" target-x="367.095" target-y="360.76"></path><path d="M 537.72 361.27 C 559.13 361.79 581.64 358.45 602.35 365.82 C 622.29 375.38 627.55 399.04 636.21 417.51 C 621.33 425.91 610.11 438.73 602.48 453.93 C 580.68 453.99 558.94 453.86 537.21 453.61 C 537.14 422.76 537.40 391.99 537.72 361.27 Z" fill="#fefefe" fill-rule="nonzero" node-id="49" stroke="none" target-height="95.539" target-width="99.06598" target-x="537.141" target-y="358.451"></path><path d="M 174.80 466.11 L 179.29 466.88 C 208.78 476.88 240.07 472.78 270.59 473.35 C 373.12 474.19 475.65 473.68 578.24 475.02 C 660.12 475.86 744.25 472.46 823.24 497.91 L 814.52 503.56 C 785.28 500.09 756.88 492.08 727.58 489.32 C 675.00 484.06 622.10 485.35 569.39 486.56 C 554.32 486.63 539.26 486.50 524.25 486.50 C 514.70 486.37 505.27 486.31 495.85 486.37 C 481.04 486.18 466.29 485.99 451.60 485.60 C 366.58 481.63 281.43 484.13 196.41 484.25 C 195.25 509.52 194.80 535.36 186.79 559.72 L 180.31 563.32 C 183.84 531.58 199.55 492.91 174.80 466.11 Z" fill="#ff6966" fill-rule="nonzero" node-id="51" stroke="none" target-height="97.20599" target-width="648.44604" target-x="174.798" target-y="466.109"></path><path d="M 196.41 484.25 C 281.43 484.13 366.58 481.63 451.60 485.60 C 451.80 490.09 452.18 499.00 452.37 503.43 C 467.70 503.17 483.09 502.85 498.54 502.46 C 497.58 497.01 496.68 491.63 495.85 486.37 C 505.27 486.31 514.70 486.37 524.25 486.50 C 524.38 490.67 524.64 498.87 524.76 502.98 C 539.26 503.04 553.81 503.17 568.37 503.23 C 568.62 499.07 569.14 490.73 569.39 486.56 C 622.10 485.34 675.00 484.06 727.58 489.32 C 756.88 492.08 785.28 500.09 814.52 503.56 C 816.96 519.14 815.23 537.79 828.44 549.34 C 839.34 562.29 857.36 562.16 872.74 565.37 C 871.53 571.59 870.31 577.81 869.22 584.15 C 853.32 584.35 837.35 585.63 821.58 583.96 C 805.67 573.06 792.72 557.48 773.93 551.32 C 738.73 538.24 696.16 552.41 676.15 584.35 C 572.73 585.12 469.30 584.35 365.88 584.73 C 343.11 551.58 297.84 535.93 260.40 552.61 C 244.11 558.44 232.50 571.65 221.41 584.22 C 198.14 584.54 174.67 586.01 151.71 581.59 C 158.83 572.29 170.50 568.89 180.31 563.32 L 186.79 559.72 C 194.80 535.36 195.25 509.52 196.41 484.25 Z" fill="#ee463b" fill-rule="nonzero" node-id="53" stroke="none" target-height="104.38699" target-width="721.03" target-x="151.714" target-y="481.626"></path><path d="M 279.12 583.90 C 303.74 576.20 331.64 589.99 341.25 613.65 C 355.36 643.66 333.56 683.80 300.22 687.13 C 268.80 692.97 237.19 663.98 240.14 632.24 C 240.65 609.74 257.64 589.73 279.12 583.90 Z M 279.19 603.65 C 257.70 612.56 249.82 644.75 268.35 660.52 C 285.53 679.69 321.38 671.36 325.93 645.20 C 335.80 618.52 304.77 589.67 279.19 603.65 Z" fill="#232526" fill-rule="nonzero" node-id="55" stroke="none" target-height="116.763" target-width="118.17299" target-x="237.187" target-y="576.202"></path><path d="M 153.57 478.68 C 158.83 484.32 170.50 487.72 167.68 497.59 C 165.24 517.34 169.80 542.35 152.87 556.84 C 151.33 530.74 152.61 504.64 153.57 478.68 Z" fill="#fdfcfc" fill-rule="nonzero" node-id="57" stroke="none" target-height="78.16202" target-width="19.172012" target-x="151.329" target-y="478.676"></path><path d="M 186.21 362.81 C 198.46 332.10 234.49 322.03 264.63 322.54 C 369.15 322.42 473.73 322.80 578.24 322.42 C 609.02 320.56 640.76 336.65 654.03 365.18 C 667.82 395.58 681.79 426.10 691.86 458.09 C 673.20 454.12 668.59 434.82 661.28 420.20 C 651.34 398.98 643.71 376.08 628.70 357.75 C 611.20 338.89 583.11 338.96 559.33 338.77 C 463.15 339.73 367.03 338.45 270.91 339.21 C 246.23 339.09 217.69 345.05 204.42 368.13 C 188.78 398.72 186.53 433.79 179.29 466.88 L 174.80 466.11 L 166.01 464.70 C 170.95 430.39 175.38 395.70 186.21 362.81 Z" fill="#f35754" fill-rule="nonzero" node-id="59" stroke="none" target-height="146.32199" target-width="525.849" target-x="166.013" target-y="320.556"></path><path d="M 329.90 360.57 C 334.01 360.44 342.15 360.31 346.25 360.18 C 346.70 390.96 346.00 421.74 345.68 452.51 C 341.57 452.71 333.43 453.09 329.39 453.28 C 329.26 422.31 329.20 391.41 329.90 360.57 Z" fill="#f64f48" fill-rule="nonzero" node-id="61" stroke="none" target-height="93.10199" target-width="17.505005" target-x="329.199" target-y="360.182"></path><path d="M 500.78 362.81 C 504.76 362.11 512.71 360.63 516.69 359.86 C 516.56 391.60 516.17 423.34 515.47 455.08 C 511.62 454.38 503.86 452.90 499.95 452.13 C 498.48 422.38 498.54 392.50 500.78 362.81 Z" fill="#ec5151" fill-rule="nonzero" node-id="63" stroke="none" target-height="95.218994" target-width="18.20996" target-x="498.476" target-y="359.861"></path><path d="M 451.60 485.60 C 466.29 485.99 481.04 486.18 495.85 486.37 C 496.68 491.63 497.58 497.01 498.54 502.46 C 483.09 502.85 467.70 503.17 452.37 503.43 C 452.18 499.00 451.80 490.09 451.60 485.60 Z" fill="#2a1f24" fill-rule="nonzero" node-id="65" stroke="none" target-height="17.824982" target-width="46.936005" target-x="451.604" target-y="485.601"></path><path d="M 524.25 486.50 C 539.26 486.50 554.33 486.63 569.39 486.56 C 569.14 490.73 568.62 499.07 568.37 503.23 C 553.81 503.17 539.26 503.04 524.77 502.98 C 524.64 498.87 524.38 490.67 524.25 486.50 Z" fill="#291e24" fill-rule="nonzero" node-id="67" stroke="none" target-height="16.735016" target-width="45.14099" target-x="524.252" target-y="486.499"></path><path d="M 838.18 503.04 C 856.14 510.35 868.38 525.36 875.18 543.31 C 858.32 545.42 844.47 537.35 834.40 524.65 C 835.36 519.26 837.22 508.43 838.18 503.04 Z" fill="#d0d844" fill-rule="nonzero" node-id="69" stroke="none" target-height="42.384003" target-width="40.781006" target-x="834.4" target-y="503.041"></path><path d="M 266.30 571.27 C 291.37 562.23 323.81 565.17 341.25 587.49 C 370.17 617.43 364.46 674.37 326.44 694.12 C 294.19 714.45 247.12 699.70 231.99 664.75 C 213.97 630.83 232.96 587.17 266.30 571.27 Z M 279.12 583.90 C 257.64 589.73 240.65 609.74 240.14 632.24 C 237.19 663.98 268.80 692.97 300.22 687.13 C 333.56 683.80 355.36 643.66 341.25 613.65 C 331.64 589.99 303.74 576.20 279.12 583.90 Z" fill="#5c5b5c" fill-rule="nonzero" node-id="71" stroke="none" target-height="152.22101" target-width="156.19699" target-x="213.975" target-y="562.225"></path><path d="M 722.06 571.91 C 772.91 550.36 829.85 607.75 809.52 658.34 C 795.42 705.34 727.26 718.04 696.09 680.98 C 664.93 647.70 680.19 588.26 722.06 571.91 Z M 733.48 582.93 C 696.35 591.53 678.85 643.27 706.48 671.10 C 732.51 705.79 794.39 687.45 799.52 645.26 C 807.21 608.20 769.83 573.38 733.48 582.93 Z" fill="#6c6c6c" fill-rule="nonzero" node-id="73" stroke="none" target-height="167.67401" target-width="164.91699" target-x="664.931" target-y="550.362"></path><path d="M 733.48 582.94 C 769.83 573.38 807.21 608.20 799.52 645.26 C 794.39 687.45 732.51 705.79 706.48 671.10 C 678.85 643.27 696.35 591.53 733.48 582.94 Z M 734.63 603.33 C 714.37 610.70 704.88 637.12 716.74 655.39 C 728.92 676.04 762.59 676.23 775.09 655.58 C 794.20 630.71 764.32 589.67 734.63 603.33 Z" fill="#252728" fill-rule="nonzero" node-id="75" stroke="none" target-height="132.40796" target-width="128.36804" target-x="678.845" target-y="573.382"></path><path d="M 827.92 606.72 C 847.35 606.40 866.97 604.29 886.40 606.66 C 888.39 609.93 892.30 616.53 894.29 619.87 C 874.28 622.56 854.02 622.62 833.89 622.05 C 832.41 618.26 829.40 610.57 827.92 606.72 Z" fill="#8bd589" fill-rule="nonzero" node-id="77" stroke="none" target-height="18.338013" target-width="66.36499" target-x="827.924" target-y="604.287"></path><path d="M 131.65 606.15 C 157.74 605.89 183.84 605.12 209.94 606.72 C 209.23 610.12 207.82 616.92 207.11 620.32 C 184.03 622.43 160.31 624.23 137.48 619.68 C 136.00 616.28 133.12 609.55 131.65 606.15 Z" fill="#9bcf96" fill-rule="nonzero" node-id="79" stroke="none" target-height="19.108032" target-width="78.28999" target-x="131.645" target-y="605.121"></path><path d="M 374.08 606.72 C 471.29 605.95 568.56 605.57 665.77 606.72 C 664.23 610.32 661.21 617.43 659.67 621.02 C 577.22 623.52 494.50 620.51 411.91 622.11 C 397.55 620.77 376.01 627.11 374.08 606.72 Z" fill="#78c087" fill-rule="nonzero" node-id="81" stroke="none" target-height="21.544006" target-width="291.68198" target-x="374.084" target-y="605.57"></path><path d="M 278.54 614.03 C 295.60 601.53 321.38 618.14 318.17 638.66 C 318.56 660.59 287.78 670.59 274.25 654.17 C 262.51 643.21 265.91 622.75 278.54 614.03 Z M 290.21 626.02 C 288.61 627.95 285.34 631.73 283.74 633.65 C 290.21 655.26 315.16 622.30 290.21 626.02 Z" fill="#28282a" fill-rule="nonzero" node-id="83" stroke="none" target-height="69.056946" target-width="58.862" target-x="262.514" target-y="601.53"></path><path d="M 733.41 613.52 C 750.53 602.30 774.51 620.00 771.69 639.36 C 771.37 659.94 742.00 670.52 728.09 655.90 C 715.33 643.98 718.73 622.11 733.41 613.52 Z M 742.13 628.20 C 738.16 638.46 741.49 642.12 752.07 639.30 C 755.86 628.85 752.59 625.19 742.13 628.20 Z" fill="#252729" fill-rule="nonzero" node-id="85" stroke="none" target-height="68.22302" target-width="59.182983" target-x="715.331" target-y="602.3"></path><path d="M 290.21 626.02 C 315.16 622.30 290.21 655.26 283.74 633.65 C 285.34 631.73 288.61 627.95 290.21 626.02 Z" fill="#6b6b6d" fill-rule="nonzero" node-id="87" stroke="none" target-height="32.958008" target-width="31.418" target-x="283.738" target-y="622.305"></path></svg>