<?xml version="1.0" standalone="no"?><!DOCTYPE svg PUBLIC "-//W3C//DTD SVG 1.1//EN" "http://www.w3.org/Graphics/SVG/1.1/DTD/svg11.dtd"><svg height="1024" node-id="1" sillyvg="true" template-height="1024" template-width="1024" version="1.1" viewBox="0 0 1024 1024" width="1024" xmlns="http://www.w3.org/2000/svg" xmlns:xlink="http://www.w3.org/1999/xlink"><defs node-id="37"></defs><path d="M 0.00 0.00 L 1024.00 0.00 L 1024.00 1024.00 L 0.00 1024.00 Z" fill="#ffffff" fill-opacity="0" fill-rule="nonzero" node-id="39" stroke="none" target-height="1024" target-width="1024" target-x="0" target-y="0"></path><path d="M 179.46 641.28 C 403.89 646.30 628.53 645.12 853.03 642.39 C 851.78 644.02 849.34 647.19 848.09 648.81 C 805.28 650.44 762.77 656.86 720.04 658.55 C 589.57 658.78 459.09 658.63 328.61 658.48 C 278.43 658.26 228.47 651.84 179.46 641.28 Z" fill="#98cce6" fill-rule="nonzero" node-id="41" stroke="none" target-height="17.491028" target-width="673.569" target-x="179.462" target-y="641.285"></path><path d="M 765.65 691.91 C 786.83 689.70 808.16 689.40 829.49 689.48 C 829.41 703.20 829.49 717.00 829.19 730.80 C 828.16 719.81 827.20 708.81 826.32 697.89 C 808.68 697.00 791.04 696.12 773.55 694.94 C 771.63 705.57 770.08 716.34 767.87 727.04 L 767.72 727.78 C 765.65 715.90 765.65 703.87 765.65 691.91 Z" fill="#d8d7d3" fill-rule="nonzero" node-id="43" stroke="none" target-height="41.401978" target-width="63.836975" target-x="765.651" target-y="689.403"></path><path d="M 819.97 413.54 C 838.71 397.89 865.06 406.60 887.20 406.68 C 886.98 417.23 886.83 427.78 886.76 438.41 C 865.06 439.37 843.44 439.81 821.89 439.15 C 843.00 438.48 864.17 438.12 885.43 437.67 C 885.43 430.29 885.36 415.46 885.36 408.08 C 863.44 407.64 841.37 408.60 819.97 413.54 Z" fill="#cbcac9" fill-rule="nonzero" node-id="45" stroke="none" target-height="41.918" target-width="67.23102" target-x="819.969" target-y="397.894"></path><path d="M 306.62 331.84 C 316.88 308.97 344.48 308.15 365.95 308.38 C 466.69 308.97 567.43 308.08 668.16 308.45 C 687.42 307.19 710.23 313.62 717.31 333.84 C 730.15 367.93 738.05 403.72 749.05 438.48 C 734.14 438.34 719.31 438.26 704.55 437.97 C 688.31 413.76 661.52 395.90 631.41 397.82 C 602.70 396.42 578.27 414.57 562.78 437.23 C 466.54 438.48 370.38 437.23 274.15 438.26 C 285.29 402.84 292.89 366.23 306.62 331.84 Z" fill="#d4e8ea" fill-rule="nonzero" node-id="47" stroke="none" target-height="131.289" target-width="474.90097" target-x="274.147" target-y="307.195"></path><path d="M 310.60 566.67 C 446.10 566.67 581.60 566.67 717.09 566.53 C 711.63 575.60 706.61 584.90 701.67 594.20 C 576.36 594.05 451.05 594.20 325.73 594.20 C 320.71 584.98 315.62 575.75 310.60 566.67 Z" fill="#fefeff" fill-rule="nonzero" node-id="49" stroke="none" target-height="27.674988" target-width="406.48798" target-x="310.604" target-y="566.526"></path><path d="M 205.59 569.77 C 225.59 562.69 248.17 563.72 269.06 566.45 C 291.27 573.98 301.01 596.86 306.99 617.67 C 266.03 620.55 225.00 619.37 183.96 619.37 C 183.67 600.62 186.18 578.56 205.59 569.77 Z" fill="#ffffff" fill-rule="nonzero" node-id="51" stroke="none" target-height="57.858948" target-width="123.319" target-x="183.669" target-y="562.689"></path><path d="M 720.93 619.22 C 723.81 597.15 734.80 573.68 757.53 566.53 C 778.42 562.84 801.22 561.80 821.22 570.14 C 839.38 579.37 839.45 601.80 842.33 619.29 C 801.82 619.44 761.37 619.66 720.93 619.22 Z" fill="#ffffff" fill-rule="nonzero" node-id="53" stroke="none" target-height="57.85901" target-width="121.401" target-x="720.93" target-y="561.803"></path><path d="M 283.67 730.29 C 435.77 730.07 587.94 730.07 740.12 730.21 C 745.73 737.89 745.58 752.65 757.39 754.05 C 789.71 757.45 822.33 753.68 854.73 755.38 C 833.03 772.21 806.10 780.69 778.72 779.73 C 601.60 780.25 424.40 779.96 247.28 780.18 C 219.83 781.21 192.38 773.46 171.42 755.38 C 203.82 753.83 236.58 758.33 268.76 753.31 C 279.46 751.32 278.72 737.74 283.67 730.29 Z M 403.96 747.04 C 404.26 751.25 404.92 759.66 405.21 763.87 C 476.28 769.03 547.94 764.97 619.31 765.64 C 619.31 757.15 625.21 741.36 610.30 743.57 C 558.42 742.10 506.47 743.72 454.59 742.91 C 437.69 743.64 419.98 740.91 403.96 747.04 Z" fill="#ffffff" fill-rule="nonzero" node-id="55" stroke="none" target-height="51.143005" target-width="683.31104" target-x="171.418" target-y="730.066"></path><path d="M 310.75 187.42 C 325.88 169.56 350.60 166.68 372.67 167.12 C 473.41 167.71 574.22 166.16 675.03 167.71 C 712.29 168.16 731.78 207.34 729.27 240.55 C 745.73 250.52 763.22 261.66 770.52 280.48 C 784.99 315.61 793.48 352.80 803.88 389.33 C 831.70 381.29 861.37 380.40 889.93 384.68 C 916.35 391.92 914.58 426.16 907.42 446.75 C 894.51 470.00 864.40 461.73 842.85 463.72 C 878.27 505.42 907.87 555.38 909.12 611.62 C 914.51 656.86 893.03 699.59 895.84 744.61 C 896.20 773.39 899.01 806.15 877.53 828.74 C 854.29 857.96 813.11 860.03 779.30 853.75 C 753.70 847.85 737.46 825.49 725.58 803.87 C 582.33 803.57 439.09 803.42 295.92 804.31 C 273.78 871.69 163.89 876.26 136.07 811.69 C 121.31 774.86 135.48 733.98 125.22 696.19 C 113.71 651.76 111.05 604.16 124.78 559.96 C 135.03 523.87 157.25 492.80 181.23 464.39 C 159.83 461.81 130.38 469.33 117.10 447.49 C 109.87 427.41 107.14 395.24 131.05 385.27 C 159.83 381.88 190.97 378.93 218.28 391.03 C 229.20 355.31 237.91 318.93 251.27 284.02 C 258.43 263.65 276.80 251.33 294.29 240.48 C 296.21 222.10 296.88 201.44 310.75 187.42 Z M 317.25 215.90 C 317.17 223.80 317.17 231.77 317.25 239.74 C 447.06 238.71 577.09 242.25 706.83 236.94 C 704.77 224.91 702.85 212.88 701.08 200.92 C 675.32 186.61 644.84 190.66 616.58 189.85 C 527.87 190.89 439.01 188.45 350.31 191.03 C 334.29 190.30 326.32 205.57 317.25 215.90 Z M 266.92 307.12 C 251.86 355.75 239.53 405.20 224.11 453.76 C 199.02 481.36 170.83 507.71 155.55 542.39 C 135.40 588.22 133.85 640.84 146.77 688.89 C 151.34 704.53 154.96 722.17 169.35 732.06 C 169.94 710.51 166.69 687.34 179.91 668.59 C 207.43 669.55 235.11 666.89 262.56 670.14 C 276.14 673.32 278.28 689.33 284.63 699.59 C 436.80 699.00 588.98 701.06 741.15 699.51 C 747.05 688.89 747.57 670.29 763.59 670.14 C 788.16 667.26 813.11 669.48 837.83 667.63 C 862.55 680.77 853.47 710.95 856.28 733.61 C 894.06 680.03 893.25 605.71 871.48 545.42 C 851.92 506.68 817.61 478.78 795.25 442.03 C 782.40 392.73 766.83 344.17 753.33 295.09 C 743.37 280.55 730.52 258.71 709.57 264.24 C 612.30 258.86 514.66 263.36 417.24 262.55 C 378.57 263.43 339.39 258.34 301.23 267.05 C 280.94 269.19 273.70 291.11 266.92 307.12 Z M 136.36 405.35 C 136.07 416.20 135.85 426.97 135.77 437.82 C 155.99 440.77 176.58 440.70 197.03 438.12 L 201.97 438.56 C 201.97 431.10 201.97 416.05 201.97 408.60 L 194.15 409.11 L 202.93 406.90 C 180.79 403.72 158.50 404.39 136.36 405.35 Z M 819.97 413.54 C 820.49 419.96 821.37 432.73 821.89 439.15 C 843.44 439.81 865.06 439.37 886.76 438.41 C 886.83 427.78 886.98 417.23 887.20 406.68 C 865.06 406.60 838.71 397.89 819.97 413.54 Z M 191.93 694.13 C 192.75 706.30 193.63 718.55 194.59 730.80 C 214.15 730.95 233.85 731.03 253.56 730.95 C 254.37 719.00 255.40 706.97 256.51 695.01 C 235.55 688.52 213.12 689.48 191.93 694.13 Z M 765.65 691.91 C 765.65 703.87 765.65 715.90 767.72 727.78 L 767.87 727.04 L 766.98 731.62 C 787.64 730.73 808.46 730.66 829.19 730.80 C 829.49 717.00 829.41 703.20 829.49 689.48 C 808.16 689.40 786.83 689.70 765.65 691.91 Z M 283.67 730.29 C 278.72 737.74 279.46 751.32 268.76 753.31 C 236.58 758.33 203.82 753.83 171.42 755.38 C 192.38 773.46 219.83 781.21 247.28 780.18 C 424.40 779.96 601.60 780.25 778.72 779.73 C 806.10 780.69 833.03 772.21 854.73 755.38 C 822.33 753.68 789.71 757.45 757.39 754.05 C 745.58 752.65 745.73 737.89 740.12 730.21 C 587.94 730.07 435.77 730.07 283.67 730.29 Z M 753.18 805.27 C 769.71 838.77 814.51 838.85 844.84 826.45 C 867.72 816.56 873.55 790.51 875.91 768.22 C 842.63 799.51 796.50 803.94 753.18 805.27 Z M 148.69 770.58 C 151.79 785.49 151.34 802.91 162.86 814.49 C 175.77 830.80 197.91 831.17 216.66 834.94 C 238.13 832.43 257.76 823.13 271.19 805.71 C 251.12 803.79 231.05 802.61 210.97 802.24 C 189.57 792.87 169.13 781.73 148.69 770.58 Z" fill="#3f4348" fill-rule="nonzero" node-id="57" stroke="none" target-height="710.10095" target-width="809.21204" target-x="107.139" target-y="166.163"></path><path d="M 317.25 215.90 C 326.32 205.57 334.29 190.30 350.31 191.03 C 439.01 188.45 527.87 190.89 616.58 189.85 C 644.84 190.66 675.32 186.61 701.08 200.92 C 690.01 202.18 679.01 203.28 668.16 204.24 C 569.79 206.46 471.34 203.28 372.96 204.32 C 353.78 204.83 335.40 210.37 317.25 215.90 Z" fill="#f7e5a5" fill-rule="nonzero" node-id="59" stroke="none" target-height="29.298004" target-width="383.832" target-x="317.246" target-y="186.606"></path><path d="M 317.25 215.90 C 335.40 210.37 353.78 204.83 372.96 204.32 C 471.34 203.28 569.79 206.46 668.16 204.24 C 668.90 213.69 669.71 223.21 670.67 232.73 C 682.63 234.06 694.66 235.46 706.83 236.94 C 577.09 242.25 447.06 238.71 317.25 239.74 C 317.17 231.77 317.17 223.80 317.25 215.90 Z" fill="#ffd34d" fill-rule="nonzero" node-id="61" stroke="none" target-height="38.96701" target-width="389.662" target-x="317.172" target-y="203.284"></path><path d="M 668.16 204.24 C 679.01 203.28 690.01 202.18 701.08 200.92 C 702.85 212.88 704.77 224.91 706.83 236.94 C 694.66 235.46 682.63 234.06 670.67 232.73 C 669.71 223.21 668.90 213.69 668.16 204.24 Z" fill="#eeb537" fill-rule="nonzero" node-id="63" stroke="none" target-height="36.013992" target-width="38.67096" target-x="668.163" target-y="200.923"></path><path d="M 266.91 307.12 C 273.70 291.11 280.94 269.19 301.23 267.05 C 391.34 273.62 481.67 275.46 572.00 274.80 C 617.98 273.99 665.28 280.04 709.56 264.24 C 730.52 258.71 743.37 280.55 753.33 295.09 C 746.98 301.29 740.71 307.56 734.43 313.76 C 716.21 287.19 683.44 282.10 653.55 283.65 C 552.74 283.87 451.93 283.43 351.19 284.98 C 324.92 283.43 300.86 296.79 286.99 318.56 C 281.97 315.75 271.93 310.00 266.91 307.12 Z" fill="#729de5" fill-rule="nonzero" node-id="65" stroke="none" target-height="59.850983" target-width="486.414" target-x="266.914" target-y="258.708"></path><path d="M 301.23 267.05 C 339.39 258.34 378.57 263.43 417.24 262.55 C 514.66 263.36 612.30 258.86 709.57 264.24 C 665.28 280.04 617.98 273.99 572.00 274.80 C 481.67 275.46 391.34 273.62 301.23 267.05 Z" fill="#8cc0ea" fill-rule="nonzero" node-id="67" stroke="none" target-height="21.697021" target-width="408.333" target-x="301.232" target-y="258.339"></path><path d="M 286.99 318.56 C 300.86 296.79 324.92 283.43 351.19 284.98 C 451.93 283.43 552.74 283.87 653.55 283.65 C 683.44 282.10 716.21 287.19 734.43 313.76 C 749.78 361.51 765.87 409.19 776.65 458.19 C 652.15 464.46 527.28 459.07 402.56 460.70 C 353.33 458.85 303.52 465.13 254.59 458.04 C 252.82 454.06 249.28 446.01 247.43 442.03 C 263.45 401.81 272.45 359.30 286.99 318.56 Z M 306.62 331.84 C 292.89 366.23 285.29 402.84 274.15 438.26 C 370.38 437.23 466.54 438.48 562.78 437.23 C 578.27 414.57 602.70 396.42 631.41 397.82 C 661.52 395.90 688.31 413.76 704.55 437.97 C 719.31 438.26 734.14 438.34 749.05 438.48 C 738.05 403.72 730.15 367.93 717.31 333.84 C 710.23 313.62 687.42 307.19 668.16 308.45 C 567.43 308.08 466.69 308.97 365.95 308.38 C 344.48 308.15 316.88 308.97 306.62 331.84 Z M 591.71 437.60 C 619.90 438.78 648.16 438.71 676.43 438.12 C 653.18 415.31 614.51 413.02 591.71 437.60 Z" fill="#3e4248" fill-rule="nonzero" node-id="69" stroke="none" target-height="183.02301" target-width="529.218" target-x="247.431" target-y="282.103"></path><path d="M 753.33 295.09 C 766.83 344.17 782.40 392.73 795.25 442.03 C 791.19 447.19 787.20 452.28 783.22 457.30 L 776.65 458.19 C 765.87 409.19 749.78 361.51 734.43 313.76 C 740.71 307.56 746.98 301.29 753.33 295.09 Z" fill="#618ad9" fill-rule="nonzero" node-id="71" stroke="none" target-height="163.09799" target-width="60.810974" target-x="734.435" target-y="295.091"></path><path d="M 224.11 453.76 C 239.53 405.20 251.86 355.75 266.92 307.12 C 271.93 310.00 281.97 315.75 286.99 318.56 C 272.45 359.30 263.45 401.81 247.43 442.03 C 244.04 446.53 237.17 455.46 233.71 459.96 C 231.34 458.41 226.55 455.31 224.11 453.76 Z" fill="#608ad9" fill-rule="nonzero" node-id="73" stroke="none" target-height="152.83899" target-width="62.877014" target-x="224.111" target-y="307.121"></path><path d="M 136.36 405.35 C 158.50 404.39 180.79 403.72 202.93 406.90 L 194.15 409.11 C 175.48 411.77 154.96 408.96 138.36 419.59 C 151.42 438.63 177.17 434.06 197.03 438.12 C 176.58 440.70 155.99 440.77 135.77 437.82 C 135.85 426.97 136.07 416.20 136.36 405.35 Z" fill="#d29d6b" fill-rule="nonzero" node-id="75" stroke="none" target-height="37.048004" target-width="67.15799" target-x="135.772" target-y="403.724"></path><path d="M 138.36 419.59 C 154.96 408.96 175.48 411.77 194.15 409.11 L 201.97 408.60 C 201.97 416.05 201.97 431.10 201.97 438.56 L 197.03 438.12 C 177.18 434.06 151.42 438.63 138.36 419.59 Z" fill="#fea551" fill-rule="nonzero" node-id="77" stroke="none" target-height="30.036987" target-width="63.61499" target-x="138.356" target-y="408.595"></path><path d="M 819.97 413.54 C 841.37 408.60 863.44 407.64 885.36 408.08 C 885.36 415.46 885.43 430.29 885.43 437.67 C 864.17 438.12 843.00 438.48 821.89 439.15 C 821.37 432.73 820.49 419.96 819.97 413.54 Z" fill="#f9a643" fill-rule="nonzero" node-id="79" stroke="none" target-height="31.512024" target-width="65.46002" target-x="819.969" target-y="407.636"></path><path d="M 591.71 437.60 C 614.51 413.02 653.18 415.31 676.43 438.12 C 648.16 438.71 619.90 438.78 591.71 437.60 Z" fill="#dae2ea" fill-rule="nonzero" node-id="81" stroke="none" target-height="25.755981" target-width="84.722046" target-x="591.707" target-y="413.023"></path><path d="M 233.70 459.96 C 237.17 455.46 244.04 446.53 247.43 442.03 C 249.28 446.01 252.82 454.06 254.59 458.04 C 303.52 465.13 353.33 458.85 402.56 460.70 C 527.28 459.07 652.15 464.46 776.65 458.19 L 783.22 457.30 C 775.62 468.96 764.03 477.23 749.71 476.12 C 609.42 478.19 469.12 475.38 328.83 477.38 C 296.58 477.08 259.90 483.65 233.70 459.96 Z" fill="#7cb3ec" fill-rule="nonzero" node-id="83" stroke="none" target-height="41.622986" target-width="549.513" target-x="233.704" target-y="442.026"></path><path d="M 783.22 457.30 C 787.20 452.28 791.19 447.19 795.25 442.03 C 817.61 478.78 851.92 506.68 871.48 545.42 C 865.36 551.84 859.38 558.19 853.40 564.61 C 821.96 532.43 774.66 542.62 734.44 542.17 C 572.08 543.21 409.72 543.87 247.36 541.58 C 225.96 542.17 201.68 540.77 184.41 555.60 C 160.57 575.46 155.92 610.73 165.81 638.92 C 170.31 648.81 175.18 658.70 179.91 668.59 C 166.69 687.34 169.94 710.51 169.35 732.06 C 154.96 722.17 151.34 704.53 146.77 688.89 C 133.85 640.84 135.40 588.22 155.55 542.39 C 170.83 507.71 199.02 481.36 224.11 453.76 C 226.55 455.31 231.34 458.41 233.71 459.96 C 259.90 483.65 296.58 477.08 328.83 477.38 C 469.13 475.38 609.42 478.19 749.71 476.12 C 764.03 477.23 775.62 468.96 783.22 457.30 Z" fill="#548ae8" fill-rule="nonzero" node-id="85" stroke="none" target-height="290.03302" target-width="737.628" target-x="133.854" target-y="442.026"></path><path d="M 403.96 747.04 C 419.98 740.91 437.69 743.64 454.59 742.91 C 506.47 743.72 558.42 742.10 610.30 743.57 C 625.21 741.36 619.31 757.15 619.31 765.64 C 547.94 764.97 476.28 769.03 405.21 763.87 C 404.92 759.66 404.26 751.25 403.96 747.04 Z" fill="#3e4349" fill-rule="nonzero" node-id="87" stroke="none" target-height="28.117004" target-width="221.25198" target-x="403.96" target-y="740.915"></path><path d="M 184.41 555.60 C 201.68 540.77 225.96 542.17 247.36 541.58 C 409.72 543.87 572.08 543.21 734.43 542.17 C 774.66 542.62 821.96 532.43 853.40 564.61 C 862.33 589.03 875.54 621.36 853.03 642.39 C 628.53 645.12 403.89 646.30 179.46 641.28 C 176.07 640.70 169.28 639.51 165.81 638.92 C 155.92 610.73 160.57 575.46 184.41 555.60 Z M 205.59 569.77 C 186.18 578.56 183.67 600.62 183.96 619.37 C 225.00 619.37 266.03 620.55 306.99 617.67 C 301.01 596.86 291.27 573.98 269.06 566.45 C 248.17 563.72 225.59 562.69 205.59 569.77 Z M 310.60 566.67 C 315.62 575.75 320.71 584.98 325.73 594.20 C 451.05 594.20 576.36 594.05 701.67 594.20 C 706.61 584.90 711.63 575.60 717.09 566.53 C 581.60 566.67 446.10 566.67 310.60 566.67 Z M 720.93 619.22 C 761.37 619.66 801.82 619.44 842.33 619.29 C 839.45 601.80 839.38 579.37 821.22 570.14 C 801.22 561.80 778.42 562.84 757.53 566.53 C 734.80 573.68 723.81 597.15 720.93 619.22 Z" fill="#3f4144" fill-rule="nonzero" node-id="89" stroke="none" target-height="113.872986" target-width="719.62" target-x="155.92" target-y="532.431"></path><path d="M 871.48 545.42 C 893.25 605.71 894.06 680.03 856.28 733.61 C 853.47 710.95 862.55 680.77 837.83 667.63 C 841.08 661.28 844.47 655.01 848.09 648.81 C 849.34 647.19 851.78 644.02 853.03 642.39 C 875.54 621.36 862.33 589.03 853.40 564.61 C 859.38 558.19 865.36 551.84 871.48 545.42 Z" fill="#658ee2" fill-rule="nonzero" node-id="91" stroke="none" target-height="188.18903" target-width="56.235046" target-x="837.829" target-y="545.42"></path><path d="M 165.81 638.92 C 169.28 639.51 176.07 640.70 179.46 641.28 C 228.47 651.84 278.43 658.26 328.61 658.48 C 459.09 658.63 589.57 658.78 720.04 658.55 C 762.77 656.86 805.28 650.44 848.09 648.81 C 844.47 655.01 841.08 661.28 837.83 667.63 C 813.11 669.48 788.16 667.26 763.59 670.14 C 747.57 670.29 747.05 688.89 741.15 699.51 C 588.98 701.06 436.80 699.00 284.63 699.59 C 278.28 689.33 276.14 673.32 262.56 670.14 C 235.11 666.89 207.43 669.55 179.91 668.59 C 175.18 658.70 170.31 648.81 165.81 638.92 Z" fill="#5a8ce5" fill-rule="nonzero" node-id="93" stroke="none" target-height="62.138977" target-width="682.27795" target-x="165.809" target-y="638.924"></path><path d="M 191.93 694.13 C 213.12 689.48 235.55 688.52 256.51 695.01 C 234.96 696.56 213.34 696.19 191.93 694.13 Z" fill="#fefaf5" fill-rule="nonzero" node-id="95" stroke="none" target-height="8.043945" target-width="64.575" target-x="191.934" target-y="688.517"></path><path d="M 191.93 694.13 C 213.34 696.19 234.96 696.56 256.51 695.01 C 255.40 706.97 254.37 719.00 253.56 730.95 C 233.85 731.03 214.15 730.95 194.59 730.80 C 193.63 718.55 192.75 706.30 191.93 694.13 Z" fill="#fc9255" fill-rule="nonzero" node-id="97" stroke="none" target-height="36.900024" target-width="64.575" target-x="191.934" target-y="694.126"></path><path d="M 767.87 727.04 C 770.08 716.34 771.63 705.57 773.55 694.94 C 791.04 696.12 808.68 697.00 826.32 697.89 C 827.20 708.81 828.16 719.81 829.19 730.80 C 808.46 730.66 787.64 730.73 766.98 731.62 L 767.87 727.04 Z" fill="#fc8a56" fill-rule="nonzero" node-id="99" stroke="none" target-height="36.67804" target-width="62.21295" target-x="766.981" target-y="694.938"></path><path d="M 753.18 805.27 C 796.50 803.94 842.63 799.51 875.91 768.22 C 873.55 790.51 867.72 816.56 844.84 826.45 C 814.51 838.85 769.71 838.77 753.18 805.27 Z" fill="#807f7e" fill-rule="nonzero" node-id="101" stroke="none" target-height="70.62598" target-width="122.72797" target-x="753.181" target-y="768.221"></path><path d="M 148.69 770.58 C 169.13 781.73 189.57 792.87 210.97 802.24 C 212.75 813.09 214.66 824.01 216.66 834.94 C 197.91 831.17 175.77 830.80 162.86 814.49 C 151.34 802.91 151.79 785.49 148.69 770.58 Z" fill="#707070" fill-rule="nonzero" node-id="103" stroke="none" target-height="64.354004" target-width="67.97" target-x="148.687" target-y="770.582"></path><path d="M 210.97 802.24 C 231.05 802.61 251.12 803.79 271.19 805.71 C 257.76 823.13 238.13 832.43 216.66 834.94 C 214.66 824.01 212.75 813.09 210.97 802.24 Z" fill="#868888" fill-rule="nonzero" node-id="105" stroke="none" target-height="32.692993" target-width="60.22101" target-x="210.974" target-y="802.243"></path></svg>