<?xml version="1.0" standalone="no"?><!DOCTYPE svg PUBLIC "-//W3C//DTD SVG 1.1//EN" "http://www.w3.org/Graphics/SVG/1.1/DTD/svg11.dtd"><svg height="1024" node-id="1" sillyvg="true" template-height="1024" template-width="1024" version="1.1" viewBox="0 0 1024 1024" width="1024" xmlns="http://www.w3.org/2000/svg" xmlns:xlink="http://www.w3.org/1999/xlink"><defs node-id="36"></defs><path d="M 0.00 0.00 L 1024.00 0.00 L 1024.00 1024.00 L 0.00 1024.00 Z" fill="#ffffff" fill-opacity="0" fill-rule="nonzero" node-id="38" stroke="none" target-height="1024" target-width="1024" target-x="0" target-y="0"></path><path d="M 441.16 313.94 C 459.70 298.03 484.78 292.47 508.75 293.17 C 624.62 293.86 740.55 292.12 856.49 293.65 C 881.15 293.72 903.73 314.63 903.66 339.71 C 904.91 411.67 903.38 483.78 904.00 555.81 C 907.55 585.40 919.22 617.36 905.46 646.12 C 890.39 667.44 861.14 666.68 837.94 670.08 C 824.19 702.11 795.22 729.82 758.82 731.07 C 719.02 736.07 679.28 712.46 664.63 675.22 C 560.08 674.95 455.47 675.78 350.85 674.60 C 334.53 706.34 303.48 732.60 266.04 731.00 C 226.72 733.43 192.68 706.69 176.84 672.24 C 155.24 667.86 130.79 660.22 121.27 638.20 C 110.44 613.47 103.00 573.60 135.16 561.92 C 126.06 519.55 137.32 468.91 176.98 445.78 C 228.04 413.96 292.92 447.03 344.32 417.99 C 382.32 389.03 405.24 345.06 441.16 313.94 Z M 431.71 353.18 C 409.27 379.72 387.95 407.30 363.22 431.82 C 314.31 463.77 254.16 441.06 201.22 456.20 C 161.49 469.54 145.31 514.97 152.95 553.66 C 173.37 532.05 196.71 509.06 228.18 507.05 C 265.41 505.03 307.16 500.59 339.81 522.54 C 366.14 538.79 378.85 568.32 385.93 597.21 C 424.28 598.74 462.76 597.98 501.18 597.84 C 502.56 549.84 497.98 501.56 504.58 453.84 C 631.42 454.67 758.34 453.00 885.18 454.74 C 883.51 414.24 887.89 373.40 882.75 333.18 C 877.40 312.34 852.53 312.48 835.37 312.27 C 721.73 313.17 607.94 309.91 494.23 313.87 C 467.62 314.07 448.17 334.77 431.71 353.18 Z M 519.31 473.43 C 519.17 514.55 519.31 555.74 518.96 596.87 C 553.90 598.88 588.91 598.05 623.85 596.59 C 630.94 550.67 669.21 510.24 717.07 509.48 C 759.52 509.06 810.16 500.87 843.22 534.21 C 858.30 546.64 860.73 574.01 883.44 575.26 C 883.79 541.15 883.30 507.12 883.65 473.01 C 816.69 472.94 749.65 469.95 682.69 473.15 C 628.23 472.59 573.70 469.81 519.31 473.43 Z M 218.24 529.35 C 190.60 534.07 177.19 560.33 165.52 582.76 C 154.06 583.53 142.60 584.36 131.21 585.13 C 129.88 609.93 137.46 635.49 159.41 649.38 C 165.80 614.09 171.56 572.35 203.52 550.33 C 236.51 533.51 277.29 533.03 311.95 545.04 C 343.63 557.69 356.41 592.42 361.13 623.61 C 373.22 598.05 358.15 569.50 341.20 550.12 C 309.31 518.23 258.95 522.26 218.24 529.35 Z M 675.39 548.52 C 651.36 566.65 642.88 598.26 644.62 627.15 C 653.58 603.05 655.11 573.87 676.64 556.65 C 707.35 531.50 750.35 536.71 787.16 539.97 C 821.62 543.86 841.28 576.72 848.64 607.49 C 849.20 620.76 849.89 634.10 850.72 647.37 C 859.96 645.42 869.55 644.03 878.65 640.91 C 893.45 635.98 889.90 617.57 893.10 605.55 C 892.20 602.49 890.46 596.38 889.55 593.32 C 876.50 593.32 863.44 593.25 850.45 593.05 C 844.40 562.20 820.99 532.68 787.72 531.01 C 750.14 529.76 706.79 522.75 675.39 548.52 Z M 224.84 591.38 C 191.01 614.58 190.46 671.82 224.15 695.44 C 258.39 720.72 318.97 704.88 328.56 660.77 C 335.01 640.98 325.50 621.60 317.51 603.88 C 322.10 622.08 332.24 641.05 325.22 660.01 C 311.74 695.16 265.62 711.62 232.49 694.33 C 198.31 673.62 193.03 616.32 227.07 593.12 C 247.49 573.87 276.87 581.65 301.19 587.14 C 277.15 576.58 246.31 573.60 224.84 591.38 Z M 727.91 581.86 C 685.95 595.89 668.17 657.72 702.49 688.14 C 731.11 724.82 798.56 711.27 810.78 666.26 C 825.02 639.45 810.43 608.05 789.66 589.64 C 771.67 578.18 748.12 576.30 727.91 581.86 Z M 268.26 600.76 C 259.16 607.84 270.13 626.11 280.14 617.98 C 289.17 610.62 278.33 592.91 268.26 600.76 Z M 229.29 634.73 C 235.26 628.75 240.96 622.57 246.52 616.18 C 250.62 616.87 258.95 618.19 263.05 618.82 C 261.04 615.21 256.94 608.05 254.92 604.44 C 241.45 609.23 232.28 620.97 229.29 634.73 Z M 287.71 614.79 C 281.74 622.08 286.32 635.35 295.28 637.92 C 308.62 635.98 299.24 609.44 287.71 614.79 Z M 389.20 618.19 C 389.75 631.39 390.31 644.59 390.80 657.79 C 466.65 656.61 542.58 657.37 618.43 657.44 C 618.92 644.10 619.48 630.76 620.10 617.50 C 543.13 617.15 466.10 616.11 389.20 618.19 Z M 247.91 643.55 C 253.12 650.15 259.37 655.70 266.59 660.29 C 271.87 653.76 276.87 647.02 281.67 640.00 C 276.67 633.13 271.25 626.74 265.27 620.76 C 259.09 627.99 251.38 634.45 247.91 643.55 Z M 231.09 637.43 C 222.76 655.29 236.24 669.39 245.82 683.07 C 255.76 680.64 273.61 664.25 252.35 661.19 L 250.34 673.90 L 245.54 673.90 C 245.89 671.47 246.59 666.54 246.93 664.04 C 236.24 658.83 235.19 646.95 231.09 637.43 Z M 289.03 646.81 C 280.97 653.13 289.93 669.94 299.38 663.27 C 307.37 656.82 298.75 639.59 289.03 646.81 Z M 267.70 669.32 C 260.76 677.38 262.22 681.89 272.01 682.86 C 278.96 674.81 277.50 670.29 267.70 669.32 Z M 281.11 670.29 C 285.00 674.46 285.00 674.46 281.11 670.29 Z" fill="#253038" fill-rule="nonzero" node-id="40" stroke="none" target-height="443.951" target-width="816.21497" target-x="103.002" target-y="292.123"></path><path d="M 431.71 353.18 C 448.17 334.77 467.62 314.07 494.23 313.87 C 607.94 309.91 721.73 313.17 835.37 312.27 C 852.53 312.48 877.40 312.34 882.75 333.18 C 887.89 373.40 883.51 414.24 885.18 454.74 C 758.34 453.00 631.42 454.67 504.58 453.84 C 480.68 451.20 456.65 449.32 432.61 450.23 C 414.27 449.88 393.99 453.14 378.01 442.10 C 418.72 443.35 459.63 444.32 500.27 441.54 C 509.51 441.75 512.29 430.36 512.64 423.06 C 514.72 391.81 512.85 360.48 512.08 329.22 C 493.81 326.93 473.25 324.22 459.01 338.66 C 426.43 368.46 398.99 403.48 370.44 437.10 C 368.63 435.78 365.02 433.14 363.22 431.82 C 387.95 407.30 409.27 379.72 431.71 353.18 Z M 538.96 329.29 C 527.99 331.16 528.34 346.31 527.57 354.92 C 526.95 379.93 525.35 405.07 527.92 430.01 C 532.50 446.61 551.61 441.68 564.39 442.86 C 594.74 441.47 626.00 446.13 655.87 439.04 C 664.97 414.31 659.97 387.15 661.08 361.38 C 659.42 350.40 664.00 329.50 647.75 328.94 C 611.69 326.37 575.02 325.95 538.96 329.29 Z M 686.51 329.63 C 674.07 337.83 676.16 354.85 674.91 367.77 C 675.05 391.81 672.13 417.09 681.64 439.81 C 711.72 446.13 742.50 443.56 772.99 443.35 C 805.50 442.51 838.22 445.64 870.45 439.74 C 870.66 404.66 873.44 369.23 868.99 334.29 C 859.34 322.48 842.39 327.48 829.19 326.02 C 781.67 327.83 733.81 322.76 686.51 329.63 Z" fill="#fdb02c" fill-rule="nonzero" node-id="42" stroke="none" target-height="144.83499" target-width="524.67004" target-x="363.217" target-y="309.906"></path><path d="M 459.01 338.66 C 473.25 324.22 493.81 326.93 512.08 329.22 C 512.85 360.48 514.72 391.81 512.64 423.06 C 512.29 430.36 509.51 441.75 500.27 441.54 C 459.63 444.32 418.72 443.35 378.01 442.10 L 370.44 437.10 C 398.99 403.48 426.43 368.46 459.01 338.66 Z M 408.72 423.00 C 436.85 422.65 465.05 422.72 493.26 422.72 C 492.98 396.67 493.32 370.62 492.98 344.64 C 454.84 357.21 436.36 396.74 408.72 423.00 Z" fill="#22303b" fill-rule="nonzero" node-id="44" stroke="none" target-height="120.10501" target-width="144.27896" target-x="370.441" target-y="324.216"></path><path d="M 538.97 329.29 C 575.02 325.95 611.70 326.37 647.75 328.94 C 664.00 329.50 659.42 350.40 661.09 361.38 C 659.97 387.15 664.98 414.31 655.88 439.04 C 626.00 446.13 594.75 441.47 564.39 442.86 C 551.61 441.68 532.50 446.61 527.92 430.01 C 525.35 405.07 526.95 379.93 527.57 354.92 C 528.34 346.31 527.99 331.16 538.97 329.29 Z M 547.86 347.00 C 547.37 372.49 547.02 397.92 547.30 423.34 C 578.63 422.93 609.89 422.72 641.22 422.58 C 641.50 397.29 641.57 372.08 641.15 346.86 C 610.03 346.72 578.91 346.86 547.86 347.00 Z" fill="#23303e" fill-rule="nonzero" node-id="46" stroke="none" target-height="120.66101" target-width="139.625" target-x="525.35" target-y="325.952"></path><path d="M 686.51 329.63 C 733.81 322.76 781.67 327.83 829.19 326.02 C 842.39 327.48 859.34 322.48 868.99 334.29 C 873.44 369.23 870.66 404.66 870.45 439.74 C 838.22 445.64 805.50 442.51 772.99 443.35 C 742.50 443.56 711.72 446.13 681.65 439.81 C 741.18 435.15 801.89 445.36 860.66 433.76 C 871.22 403.48 870.66 366.73 860.17 336.37 C 841.41 328.87 820.72 331.09 800.99 330.81 C 762.85 332.13 724.64 331.16 686.51 329.63 Z" fill="#4e3f26" fill-rule="nonzero" node-id="48" stroke="none" target-height="123.64801" target-width="191.79303" target-x="681.646" target-y="322.479"></path><path d="M 674.91 367.77 C 676.16 354.85 674.07 337.83 686.51 329.63 C 724.64 331.16 762.85 332.13 800.99 330.81 C 820.72 331.09 841.42 328.87 860.17 336.37 C 870.66 366.73 871.22 403.48 860.66 433.76 C 801.89 445.36 741.18 435.15 681.65 439.81 C 672.13 417.09 675.05 391.81 674.91 367.77 Z M 695.89 346.79 C 695.40 372.29 695.54 397.78 695.82 423.20 C 747.57 422.86 799.39 422.65 851.21 422.58 C 851.14 397.36 851.14 372.22 850.79 347.00 C 799.11 346.17 747.50 346.65 695.89 346.79 Z" fill="#232c3e" fill-rule="nonzero" node-id="50" stroke="none" target-height="116.49301" target-width="199.08698" target-x="672.129" target-y="328.87"></path><path d="M 408.72 423.00 C 436.36 396.74 454.84 357.21 492.98 344.64 C 493.32 370.62 492.98 396.67 493.26 422.72 C 465.05 422.72 436.85 422.65 408.72 423.00 Z" fill="#d8ede9" fill-rule="nonzero" node-id="52" stroke="none" target-height="78.356995" target-width="84.608" target-x="408.717" target-y="344.638"></path><path d="M 547.86 347.00 C 578.91 346.86 610.03 346.72 641.15 346.86 C 641.56 372.08 641.49 397.29 641.22 422.58 C 609.89 422.72 578.63 422.93 547.30 423.34 C 547.02 397.92 547.37 372.49 547.86 347.00 Z" fill="#d8ebe7" fill-rule="nonzero" node-id="54" stroke="none" target-height="76.620026" target-width="94.54205" target-x="547.022" target-y="346.722"></path><path d="M 695.89 346.79 C 747.50 346.65 799.11 346.17 850.79 347.00 C 851.14 372.22 851.14 397.36 851.21 422.58 C 799.39 422.65 747.57 422.86 695.82 423.20 C 695.54 397.78 695.40 372.29 695.89 346.79 Z" fill="#d7ece8" fill-rule="nonzero" node-id="56" stroke="none" target-height="77.03601" target-width="155.81" target-x="695.401" target-y="346.167"></path><path d="M 201.22 456.20 C 254.16 441.06 314.31 463.77 363.22 431.82 C 365.02 433.14 368.64 435.78 370.44 437.10 L 378.01 442.10 C 393.99 453.14 414.27 449.88 432.61 450.23 C 456.65 449.32 480.68 451.20 504.58 453.84 C 497.98 501.56 502.56 549.84 501.18 597.84 C 462.76 597.98 424.28 598.74 385.93 597.21 C 378.85 568.32 366.13 538.79 339.81 522.54 C 307.16 500.59 265.41 505.03 228.18 507.05 C 196.71 509.06 173.37 532.05 152.95 553.66 C 145.31 514.97 161.49 469.54 201.22 456.20 Z" fill="#feb135" fill-rule="nonzero" node-id="58" stroke="none" target-height="166.92502" target-width="359.27402" target-x="145.305" target-y="431.817"></path><path d="M 675.39 548.52 C 706.79 522.75 750.14 529.76 787.72 531.01 C 820.99 532.68 844.40 562.20 850.45 593.05 C 863.44 593.25 876.50 593.32 889.55 593.32 C 890.46 596.38 892.20 602.49 893.10 605.55 C 878.23 606.17 863.44 606.87 848.64 607.49 C 841.28 576.72 821.62 543.86 787.16 539.97 C 750.35 536.71 707.35 531.50 676.64 556.65 C 655.11 573.87 653.58 603.05 644.62 627.15 C 642.88 598.25 651.36 566.65 675.39 548.52 Z" fill="#818282" fill-rule="nonzero" node-id="60" stroke="none" target-height="104.406006" target-width="250.21301" target-x="642.885" target-y="522.747"></path><path d="M 224.84 591.38 C 246.31 573.60 277.15 576.58 301.19 587.14 C 276.87 581.65 247.49 573.87 227.07 593.12 C 193.03 616.32 198.31 673.62 232.48 694.33 C 265.62 711.62 311.74 695.16 325.22 660.01 C 332.24 641.05 322.10 622.08 317.51 603.88 C 325.50 621.60 335.01 640.98 328.56 660.77 C 318.97 704.88 258.39 720.72 224.15 695.44 C 190.46 671.82 191.01 614.58 224.84 591.38 Z" fill="#818282" fill-rule="nonzero" node-id="62" stroke="none" target-height="147.12701" target-width="144.55702" target-x="190.458" target-y="573.596"></path><path d="M 727.91 581.86 C 748.12 576.30 771.67 578.18 789.66 589.64 C 810.43 608.05 825.02 639.45 810.78 666.26 C 798.56 711.27 731.11 724.82 702.49 688.14 C 668.17 657.72 685.95 595.89 727.91 581.86 Z M 732.15 582.83 C 704.15 592.21 680.81 622.50 688.66 652.86 C 693.25 682.24 723.12 705.16 752.50 703.77 C 793.49 701.83 827.80 651.26 805.85 614.02 C 793.62 586.72 759.52 576.51 732.15 582.83 Z" fill="#818282" fill-rule="nonzero" node-id="64" stroke="none" target-height="148.51599" target-width="159.63104" target-x="668.17" target-y="576.305"></path><path d="M 519.31 473.43 C 573.70 469.81 628.23 472.59 682.69 473.15 C 749.65 469.95 816.69 472.94 883.65 473.01 C 883.30 507.12 883.79 541.15 883.44 575.26 C 860.73 574.01 858.30 546.64 843.22 534.21 C 810.16 500.87 759.52 509.06 717.07 509.48 C 669.21 510.24 630.94 550.67 623.85 596.59 C 588.91 598.05 553.90 598.88 518.96 596.87 C 519.31 555.74 519.17 514.55 519.31 473.43 Z" fill="#ffb234" fill-rule="nonzero" node-id="66" stroke="none" target-height="129.06598" target-width="364.831" target-x="518.958" target-y="469.815"></path><path d="M 287.71 614.79 C 299.24 609.44 308.62 635.98 295.28 637.92 C 286.32 635.35 281.73 622.08 287.71 614.79 Z" fill="#d8d7d3" fill-rule="nonzero" node-id="68" stroke="none" target-height="28.480957" target-width="26.882996" target-x="281.734" target-y="609.439"></path><path d="M 218.24 529.35 C 258.95 522.26 309.31 518.23 341.20 550.12 C 358.15 569.50 373.22 598.05 361.13 623.61 C 356.41 592.42 343.63 557.69 311.95 545.04 C 277.29 533.03 236.51 533.51 203.52 550.33 C 171.56 572.35 165.80 614.09 159.41 649.38 C 137.46 635.49 129.88 609.93 131.20 585.13 C 142.60 584.36 154.06 583.53 165.52 582.76 C 177.19 560.33 190.60 534.07 218.24 529.35 Z" fill="#515b64" fill-rule="nonzero" node-id="70" stroke="none" target-height="131.15002" target-width="243.336" target-x="129.884" target-y="518.232"></path><path d="M 229.29 634.73 C 232.28 620.97 241.44 609.23 254.92 604.44 C 256.94 608.05 261.03 615.21 263.05 618.82 C 258.95 618.19 250.61 616.87 246.52 616.18 C 240.96 622.57 235.26 628.75 229.29 634.73 Z" fill="#dee0e1" fill-rule="nonzero" node-id="72" stroke="none" target-height="30.286987" target-width="33.76001" target-x="229.289" target-y="604.438"></path><path d="M 247.91 643.55 C 251.38 634.45 259.09 627.99 265.27 620.76 C 271.25 626.74 276.66 633.13 281.67 640.00 C 276.87 647.02 271.87 653.76 266.59 660.29 C 259.37 655.70 253.12 650.15 247.91 643.55 Z" fill="#dee0e1" fill-rule="nonzero" node-id="74" stroke="none" target-height="39.526" target-width="33.76001" target-x="247.905" target-y="620.762"></path><path d="M 732.15 582.83 C 759.52 576.51 793.62 586.72 805.85 614.02 C 827.80 651.26 793.49 701.83 752.50 703.77 C 723.12 705.16 693.25 682.24 688.66 652.86 C 680.81 622.50 704.15 592.21 732.15 582.83 Z M 733.75 605.97 C 731.87 608.19 728.05 612.57 726.17 614.79 C 730.97 638.62 760.21 600.97 733.75 605.97 Z M 751.32 604.78 C 758.06 619.79 774.10 627.92 781.05 643.13 C 783.13 637.85 787.23 627.22 789.25 621.94 C 777.09 615.21 766.05 604.58 751.32 604.78 Z M 714.09 627.99 C 704.78 634.24 712.42 655.01 723.53 645.49 C 732.56 639.17 725.06 618.40 714.09 627.99 Z M 738.88 652.16 C 751.18 666.19 759.52 644.87 766.46 636.67 C 762.29 632.71 754.03 624.86 749.86 620.90 C 740.97 628.82 728.12 639.80 738.88 652.16 Z M 767.57 654.25 C 769.38 658.41 772.99 666.61 774.80 670.78 C 770.77 669.74 762.71 667.58 758.68 666.54 C 759.45 671.26 761.04 680.64 761.81 685.29 C 776.40 675.78 784.11 660.15 789.52 644.03 C 782.16 647.44 774.80 650.84 767.57 654.25 Z M 712.42 664.73 C 725.76 670.50 739.16 676.54 747.92 688.77 C 758.96 671.40 737.70 663.69 728.05 652.51 C 722.77 656.54 717.63 660.63 712.42 664.73 Z" fill="#283339" fill-rule="nonzero" node-id="76" stroke="none" target-height="128.64899" target-width="146.98798" target-x="680.812" target-y="576.513"></path><path d="M 268.26 600.76 C 278.33 592.91 289.17 610.62 280.14 617.98 C 270.13 626.11 259.16 607.84 268.26 600.76 Z" fill="#bebebd" fill-rule="nonzero" node-id="78" stroke="none" target-height="33.20404" target-width="30.009003" target-x="259.159" target-y="592.907"></path><path d="M 751.32 604.78 C 766.05 604.58 777.09 615.21 789.25 621.94 C 787.23 627.22 783.13 637.85 781.05 643.13 C 774.10 627.92 758.06 619.79 751.32 604.78 Z" fill="#bebebd" fill-rule="nonzero" node-id="80" stroke="none" target-height="38.55298" target-width="37.92798" target-x="751.32" target-y="604.577"></path><path d="M 231.10 637.43 C 235.19 646.95 236.24 658.83 246.93 664.04 C 246.59 666.54 245.89 671.47 245.54 673.90 L 250.34 673.90 L 252.35 661.19 C 273.61 664.25 255.76 680.64 245.82 683.07 C 236.24 669.39 222.76 655.29 231.10 637.43 Z" fill="#bebebd" fill-rule="nonzero" node-id="82" stroke="none" target-height="45.638" target-width="50.848007" target-x="222.76" target-y="637.434"></path><path d="M 767.57 654.24 C 774.80 650.84 782.16 647.44 789.52 644.03 C 784.11 660.15 776.40 675.78 761.81 685.29 C 761.04 680.64 759.45 671.26 758.68 666.54 C 762.71 667.58 770.77 669.74 774.80 670.78 C 772.99 666.61 769.38 658.41 767.57 654.24 Z" fill="#bebebd" fill-rule="nonzero" node-id="84" stroke="none" target-height="41.261963" target-width="30.843018" target-x="758.682" target-y="644.033"></path><path d="M 712.42 664.73 C 717.63 660.63 722.77 656.54 728.05 652.51 C 737.70 663.69 758.96 671.40 747.92 688.77 C 739.16 676.54 725.76 670.50 712.42 664.73 Z" fill="#bebebd" fill-rule="nonzero" node-id="86" stroke="none" target-height="36.260986" target-width="46.541992" target-x="712.419" target-y="652.508"></path><path d="M 733.75 605.97 C 760.21 600.97 730.97 638.62 726.17 614.79 C 728.05 612.57 731.87 608.19 733.75 605.97 Z" fill="#8b9297" fill-rule="nonzero" node-id="88" stroke="none" target-height="37.649963" target-width="34.037964" target-x="726.174" target-y="600.965"></path><path d="M 848.64 607.50 C 863.44 606.87 878.23 606.17 893.10 605.55 C 889.90 617.57 893.45 635.98 878.65 640.91 C 869.55 644.03 859.96 645.42 850.73 647.37 C 849.89 634.10 849.20 620.76 848.64 607.50 Z" fill="#4f585d" fill-rule="nonzero" node-id="90" stroke="none" target-height="41.817993" target-width="44.804993" target-x="848.642" target-y="605.55"></path><path d="M 389.20 618.19 C 466.10 616.11 543.13 617.15 620.10 617.50 C 619.47 630.76 618.92 644.10 618.43 657.44 C 542.58 657.37 466.65 656.61 390.80 657.79 C 390.31 644.59 389.75 631.39 389.20 618.19 Z" fill="#50565a" fill-rule="nonzero" node-id="92" stroke="none" target-height="41.679016" target-width="230.90298" target-x="389.197" target-y="616.108"></path><path d="M 714.09 627.99 C 725.06 618.40 732.56 639.17 723.53 645.49 C 712.42 655.01 704.78 634.24 714.09 627.99 Z" fill="#7f888c" fill-rule="nonzero" node-id="94" stroke="none" target-height="36.608948" target-width="27.78601" target-x="704.777" target-y="618.4"></path><path d="M 738.89 652.16 C 728.12 639.80 740.97 628.82 749.86 620.90 C 754.03 624.86 762.30 632.71 766.46 636.67 C 759.52 644.87 751.18 666.19 738.89 652.16 Z" fill="#cbcac9" fill-rule="nonzero" node-id="96" stroke="none" target-height="45.291992" target-width="38.34497" target-x="728.119" target-y="620.901"></path><path d="M 289.03 646.81 C 298.75 639.59 307.37 656.82 299.38 663.27 C 289.93 669.94 280.97 653.13 289.03 646.81 Z" fill="#a8abad" fill-rule="nonzero" node-id="98" stroke="none" target-height="30.356995" target-width="26.397003" target-x="280.97" target-y="639.587"></path><path d="M 267.70 669.32 C 277.50 670.29 278.96 674.81 272.01 682.86 C 262.21 681.89 260.76 677.38 267.70 669.32 Z" fill="#8b9093" fill-rule="nonzero" node-id="100" stroke="none" target-height="13.5460205" target-width="18.199982" target-x="260.756" target-y="669.318"></path><path d="M 281.11 670.29 C 285.00 674.46 285.00 674.46 281.11 670.29 Z" fill="#c4c9ca" fill-rule="nonzero" node-id="102" stroke="none" target-height="4.1679688" target-width="3.8900146" target-x="281.11" target-y="670.291"></path></svg>